<svg id="Layer_1" data-name="Layer 1" xmlns="http://www.w3.org/2000/svg" width="4.7in" height="4.4in" viewBox="0 0 340.3 318.6"><title>logo-regular</title><circle cx="171.8" cy="159.3" r="159.3" fill="#aebc43"/><path d="M47.4,162c17.5-7.3,15.1-41-11.7-42.8C21,118.7,0,118.9,0,118.9v92H37.8s15.8.4,24-10.9C70.3,187.1,68,164.3,47.4,162ZM21.1,135.5c8.4,0,17.9,0,17.9,9.5,0,13.8-17.9,11.1-17.9,11.1Zm10,58.9H21V172h9.5s14.6-1,14.6,11S31.1,194.4,31.1,194.4Z" fill="#231f20"/><path d="M107,147.1c-23,0-36.3,15.2-36.3,33.7s16.4,33.5,37.4,32.2c19.9.4,35.2-14.1,35.2-32.6C143.3,158.7,125.5,147.1,107,147.1Zm-.2,49.2a16,16,0,1,1,15.8-16A15.8,15.8,0,0,1,106.8,196.3Z" fill="#231f20"/><rect x="249.7" y="111" width="20" height="101.02" fill="#231f20"/><path d="M307.3,148.3c-35.1.1-33.4,34.5-32.9,38.6,1.4,12.2,8.8,21,19.6,25.1,16.7,6.3,39.6.5,45.2-17.9-11.3-1-18.9-2.1-18.9-2.1s-1.5,7.4-12.7,7.2c-13.3-.8-13.4-14.5-13.4-14.5h45.9S343.7,148.2,307.3,148.3ZM295,172.6s3-10.5,13.8-10.5S322,172.6,322,172.6Z" fill="#231f20"/><ellipse cx="209.8" cy="234.9" rx="21" ry="4.4" fill="#231f20"/><path d="M183.6,227s-1.7,1.4-6.8,2.2a78,78,0,0,1-12.9.7c-5.7-.1-10.4-2.9-10-2s1.2,2.1,6.1,3.2,13.6,1,15.4.8,9-1.3,10.7-4.6C185.2,226.4,183.6,227,183.6,227Z" fill="#231f20"/><path d="M147.9,159.9Z" fill="#231f20"/><path d="M148,158.9v0Z" fill="#231f20"/><path d="M148,159.1v0Z" fill="#231f20"/><path d="M148,159.6v0Z" fill="#231f20"/><path d="M148,158.6v0Z" fill="#231f20"/><path d="M148,158.3v0Z" fill="#231f20"/><path d="M148.1,157.6v0Z" fill="#231f20"/><path d="M148.1,157.6Z" fill="#231f20"/><path d="M148.1,158.1v0Z" fill="#231f20"/><path d="M148.1,158h0Z" fill="#231f20"/><path d="M147.9,160Z" fill="#231f20"/><path d="M209.6,95.7c-3.8-5.6-11.1-9-17.9-6.2l-38.6,16.1-16.6,6.7-8.9,4.1c-1,.4-5,3.5-6.3,4s-12.2,3-12.6,9.3c-.1,1.7,1.2,8,9.8,8.2,4.3.1,5.5-1.1,8.5-2.6s12.7-3.3,13.5-3.6,9.8-3.6,13-5.3c0,0-.8,20.2-.9,21.7s-4.1,3.9-4.5,9.5-.2,13.7.2,24.8,1,30.8,1,30.8-1.1,12.9,13.1,13.4,17.6-1.3,17.6-1.3,7.7-2.1,7.7-6.3h0c0-2.7.3-8.9.5-15.4.2-3.6.3-7.4.3-10.5,0-8.7.3-22.9-.7-30.4-1.2-11.8-3.7-10-6.7-18.5-.3-9.8-2.7-26.2-2.7-26.2s-.4-2.1,2.2-3.2,21.9-9.1,21.9-9.1S212,102.8,209.6,95.7Zm-3.1,4.2c-5.1,4.3-30.6,12.7-30.9,14.7-.7,4.7.8,17.3,2.9,32.3.7,4.7,5.4,5.2,5.7,15.8.2,8.8,1.8,38.5,1.2,52.6-2.6,10.9-21.9,9.2-28.3,6.7s-3.9-18.7-5.1-28c-.2-1.4-.7-18.8-1-24.4a107.4,107.4,0,0,1,.1-11.4c.3-3.5,4-7.7,4.3-9.8s1-25.9,1-25.9l-8.5,3.1s-24.7,9.1-27.7,9.3a9.2,9.2,0,0,1-6.8-2.4,4,4,0,0,1-1.3-4.4c.1-1.5,13.8-6.9,18.4-9.7l17-7.7s42.2-17.4,47.8-19.4S209.8,97,206.5,99.9Z" fill="#231f20"/><path d="M147.9,159.9h0Z" fill="#231f20"/><path d="M147.9,160Z" fill="#231f20"/><path d="M180.9,218c-3.5,0-9.3,3.4-14.2,1.2s-5.7-13.9-5.7-19.9-.2-9.7-.1-14.9-2.7-21.5-2.7-21.5c-1.4-9.5,1.8-14,1.8-14s1-21.6,1.6-26.1,3-3.5,7.1-4.1,3.6-2,5.4-4.5c-4.8,3.2-6.6,2.6-6.6,2.6l4.9-2.5,5.2-2.4,9.9-4.5,13.4-5.4a8.2,8.2,0,0,0-.6-1.4c-7.1,2.4-20.9,8.4-21.6,8.8L170,114c-1.6.7-12.2,4.5-12.2,4.5s-19.4,7.4-20.2,7.6-4.3.1-5.1.3-12,5.2-13.5,5.4-4.8-3-4.8-3l-1.3,1,1.2,1.6c3,3.5,5.2,2.3,5.2,2.3s9.5-4.3,12.4-5.2,7.4-1.2,9-1.7l18.5-7.3s-1.3,27.7-1.4,28.4-2.2,4.4-3.9,8.7.3,15.7.7,18.5-.7,17.5-.7,21.4.9,17.8,1.1,19.4,1.3,4.6,6.1,6a30.3,30.3,0,0,0,14.2-.1C182.4,220.1,183.2,218.7,180.9,218Z" fill="#231f20"/><path d="M250.2,52.1C229.6,47.6,206.3,41,204.3,41s-6.4-.8-10.3,3.5-2.3,14.2.5,16.4,13.5,4.9,27.7,7.8a77.8,77.8,0,0,1-.2,9.1c-2.5,2.1-3.3,2.7-4.2,6.2-1.8,7.1-3,26.9-5.7,30.6-.7,1-7.7,5.4-11.1,12.4s-5.8,30.7-8.8,50.3c-1.5,9.9-2.9,19.3-4,26.2s-.5,12.7-.5,15.4h0c.7,1.9,1.9,3.9,3.7,4.6,3.9,1.5,19.4,6.3,28.5,5.2,11-1.4,14.2-2.5,16.2-23.8s7.9-55.5,8.5-60.1c2.2-12.8,1-17.4-6-26.1-3.8-8.9,3.9-30.3,1.8-36.1-1.6-4.3-3-1.7-1.6-9.1L259,78.4s14.6,4.3,16.4-8.3S270.1,56.5,250.2,52.1Zm14.4,24.4c-14.4-2.9-28.4-6.3-28.4-6.3l-.9,10a7.9,7.9,0,0,1,2.2,6.6s-6.7,29.1-.2,35.4,5.2,16.5,4.6,21.2-4.7,25.1-5.3,31.7-5.1,36.4-5.3,40.3-2.4,10.2-9,10.5a98.9,98.9,0,0,1-18.3-1.2c-4.6-.7-13-4-13.7-8.8S194,187,194,187s7.8-54.1,8-54.8a26.5,26.5,0,0,1,11.4-14.7c4.6-2.9,6-33.6,8.3-35.7a7.1,7.1,0,0,1,3.1-1.8l.4-13.9-24.5-5.2s-8.8-1.7-6-11.6c1.8-6.3,6.8-6.6,9.2-6s57.2,15.1,64.8,16.5C274.7,61.4,275.6,76.9,264.6,76.5Z" fill="#231f20"/><path d="M219,60.1c-2.9-.6-10.5-1.6-11.9-2.2s-5.9-2.4-5.1-5.2,3.1-2.2,2.9-4.5-.4-2.6-3.1-3.4-8.1,9.3-3.9,12.7c2,2.2,30.7,7.5,30.7,7.5s.8.7-.5,4.7.2,4.1,0,5.3-1.7,1.8-1.5,3.7,4.7,1.9,4.9,3.1-2.3,1.6-2,1.9,1.1.6,3.2.2,2.4-3.3-1.2-5c0,0-4.7-2,0-2.8,2.4-.2,2.3-1.6,1.9-2s-2.8-.6-3.2-1-.8-1.7.8-3.8a21.2,21.2,0,0,0,.4-3.8l32,7.4,3.5.4.4-1.4L236,64.1Z" fill="#231f20"/><path d="M224.8,88.5l-1.5-2.8-1.4.3c.1,5.3-1.4,12.5-2.3,18.7s-1.6,12.2-7.5,16.6c-8,5.2-8.7,14.7-8.7,14.7-.2,11.1-4.3,33.5-4.3,33.5s-8.8,41.4-6.8,46.2,9.6,6.6,14.3,7.5,14.2,0,16.4-.4a4.3,4.3,0,0,0,2.9-2.8s-.5,1-11,.5c-12.5-.7-11.9-14.1-12-17.1s5.5-30.9,5.5-30.9c.9-5.8,2.1-39.5,2.7-41.7,1.7-6.3,7.1-10.8,8.8-16.9.6-2,3.6-21.6,4.8-22.3s10.8.2,10.8.2C231.2,88.3,224.8,88.5,224.8,88.5Z" fill="#231f20"/><polygon points="152 274.7 148.4 246.9 131.8 246.8 127.5 273.4 124.1 246.8 108.7 246.8 115.9 286.9 135.6 286.9 139.9 266.3 144.7 286.8 164.7 286.8 171.8 246.8 156.3 246.8 152 274.7" fill="#231f20"/><path d="M197.9,246.3h-6.7c-9.5-.2-15.3,5.1-15.3,11.5v17.9c0,8.5,8.5,11.7,14.9,11.7h8c6.5,0,14-3.6,14-11.7V257.8C212.3,249.2,204.3,246.3,197.9,246.3Zm-1,32.2a2.5,2.5,0,0,1-5,0V255.2a2.5,2.5,0,0,1,5,0Z" fill="#231f20"/><path d="M251.1,266.8l-3.5-.9c6.3-.7,7.9-1.2,7.9-8.8s-2.5-10-17.5-10H220.3v39.6h15.9V268.8h1.8a3.3,3.3,0,0,1,3.3,3.3v14.6h14.4V272.5A5.8,5.8,0,0,0,251.1,266.8Zm-10.3-5.9c0,2-4.6,1.6-4.6,1.6v-8.6s3.7-.3,4.6,1.2Z" fill="#231f20"/><path d="M301.3,246.9H286.1L279.4,262V246.8s-15.8.2-16,0v39.8h15.8V269.7l6.6,17h16.3L292.2,265Z" fill="#231f20"/><path d="M338.4,269c-5.1-5.6-16.5-7.3-19.3-10.6-.7-4.2.5-5.6,2.8-5.6s2.4,1.9,2.4,6.1H339c0-8.6-1.8-12.8-18-12.8,0,0-16.9-1.2-16.9,10.3,0,4.5.6,7.9,8.7,11.3s12.1,5.1,12.5,7.9.2,5.2-2.9,5.2-3.2-.3-3.2-8.3H304.6c-.4,5,.1,8.6,2.1,10.6,6.8,6.7,29.7,5.9,32.8-1.6C340.6,278.8,341,271.9,338.4,269Z" fill="#231f20"/></svg>