<svg id="Layer_1" data-name="Layer 1" xmlns="http://www.w3.org/2000/svg" width="4.9in" height="4.4in" viewBox="0 0 354.6 318.5"><title>logo-white</title><path d="M216.8,230.5c-11.5,0-20.9,2-20.9,4.4s9.4,4.4,20.9,4.4,21-1.9,21-4.4S228.4,230.5,216.8,230.5Zm1.3-99.7c1.7-6.3,7.1-10.8,8.8-16.9.6-2,3.6-21.6,4.8-22.3s10.8.2,10.8.2c-4.3-3.5-10.7-3.3-10.7-3.3l-1.5-2.8-1.4.3c.1,5.2-1.4,12.5-2.3,18.6s-1.6,12.3-7.5,16.7c-8,5.2-8.7,14.7-8.7,14.7-.2,11.1-4.3,33.5-4.3,33.5s-8.8,41.4-6.8,46.2,9.6,6.6,14.3,7.5,14.2,0,16.4-.4a3.7,3.7,0,0,0,2.8-2.8c-.1.1-1.1,1-10.9.5-12.5-.7-11.9-14.1-12-17.1s5.5-30.9,5.5-30.9C216.3,166.7,217.5,133,218.1,130.8ZM243,64.1s-14.2-3.5-17-4-10.5-1.6-11.9-2.2-5.9-2.4-5.1-5.3,3.1-2.1,2.9-4.4-.4-2.6-3.1-3.4-8.1,9.3-3.9,12.7c2,2.2,30.7,7.5,30.7,7.5s.8.7-.5,4.7.2,4.1,0,5.3-1.7,1.8-1.5,3.6,4.7,2,4.9,3.2-2.3,1.6-2,1.9,1.1.6,3.2.2,2.4-3.3-1.2-5c0,0-4.7-2,0-2.8,2.4-.2,2.3-1.6,1.9-2s-2.8-.6-3.2-1-.8-1.7.8-3.8a21.2,21.2,0,0,0,.4-3.8l32,7.4,3.5.4.4-1.4Zm0,0s-14.2-3.5-17-4-10.5-1.6-11.9-2.2-5.9-2.4-5.1-5.3,3.1-2.1,2.9-4.4-.4-2.6-3.1-3.4-8.1,9.3-3.9,12.7c2,2.2,30.7,7.5,30.7,7.5s.8.7-.5,4.7.2,4.1,0,5.3-1.7,1.8-1.5,3.6,4.7,2,4.9,3.2-2.3,1.6-2,1.9,1.1.6,3.2.2,2.4-3.3-1.2-5c0,0-4.7-2,0-2.8,2.4-.2,2.3-1.6,1.9-2s-2.8-.6-3.2-1-.8-1.7.8-3.8a21.2,21.2,0,0,0,.4-3.8l32,7.4,3.5.4.4-1.4Zm-24.9,66.7c1.7-6.3,7.1-10.8,8.8-16.9.6-2,3.6-21.6,4.8-22.3s10.8.2,10.8.2c-4.3-3.5-10.7-3.3-10.7-3.3l-1.5-2.8-1.4.3c.1,5.2-1.4,12.5-2.3,18.6s-1.6,12.3-7.5,16.7c-8,5.2-8.7,14.7-8.7,14.7-.2,11.1-4.3,33.5-4.3,33.5s-8.8,41.4-6.8,46.2,9.6,6.6,14.3,7.5,14.2,0,16.4-.4a3.7,3.7,0,0,0,2.8-2.8c-.1.1-1.1,1-10.9.5-12.5-.7-11.9-14.1-12-17.1s5.5-30.9,5.5-30.9C216.3,166.7,217.5,133,218.1,130.8Zm-33.5-18.9,9.9-4.5,13.4-5.4a8.2,8.2,0,0,0-.6-1.4c-7.1,2.4-20.9,8.4-21.6,8.8L177,114c-1.6.7-12.2,4.5-12.2,4.5s-19.3,7.4-20.2,7.6-4.3.1-5.1.3-12,5.2-13.5,5.4-4.8-3-4.8-3l-1.2,1,1.1,1.6c3,3.5,5.2,2.3,5.2,2.3s9.5-4.3,12.5-5.2,7.3-1.2,8.9-1.7l18.5-7.3s-1.3,27.7-1.4,28.4-2.2,4.4-3.9,8.6.3,15.8.7,18.6-.7,17.4-.7,21.4.9,17.8,1.1,19.4,1.3,4.6,6.1,6,11.8.6,14.2-.1c7.1-1.7,7.9-3.2,5.6-3.8s-9.3,3.4-14.2,1.2-5.7-14-5.7-20-.2-9.6-.1-14.8-2.7-21.5-2.7-21.5c-1.4-9.5,1.8-14,1.8-14s1-21.7,1.6-26.1,3-3.5,7.1-4.1,3.6-2,5.4-4.5c-4.8,3.2-6.6,2.6-6.6,2.6l4.9-2.5Zm33.5,18.9c1.7-6.3,7.1-10.8,8.8-16.9.6-2,3.6-21.6,4.8-22.3s10.8.2,10.8.2c-4.3-3.5-10.7-3.3-10.7-3.3l-1.5-2.8-1.4.3c.1,5.2-1.4,12.5-2.3,18.6s-1.6,12.3-7.5,16.7c-8,5.2-8.7,14.7-8.7,14.7-.2,11.1-4.3,33.5-4.3,33.5s-8.8,41.4-6.8,46.2,9.6,6.6,14.3,7.5,14.2,0,16.4-.4a3.7,3.7,0,0,0,2.8-2.8c-.1.1-1.1,1-10.9.5-12.5-.7-11.9-14.1-12-17.1s5.5-30.9,5.5-30.9C216.3,166.7,217.5,133,218.1,130.8ZM243,64.1s-14.2-3.5-17-4-10.5-1.6-11.9-2.2-5.9-2.4-5.1-5.3,3.1-2.1,2.9-4.4-.4-2.6-3.1-3.4-8.1,9.3-3.9,12.7c2,2.2,30.7,7.5,30.7,7.5s.8.7-.5,4.7.2,4.1,0,5.3-1.7,1.8-1.5,3.6,4.7,2,4.9,3.2-2.3,1.6-2,1.9,1.1.6,3.2.2,2.4-3.3-1.2-5c0,0-4.7-2,0-2.8,2.4-.2,2.3-1.6,1.9-2s-2.8-.6-3.2-1-.8-1.7.8-3.8a21.2,21.2,0,0,0,.4-3.8l32,7.4,3.5.4.4-1.4Zm0,0s-14.2-3.5-17-4-10.5-1.6-11.9-2.2-5.9-2.4-5.1-5.3,3.1-2.1,2.9-4.4-.4-2.6-3.1-3.4-8.1,9.3-3.9,12.7c2,2.2,30.7,7.5,30.7,7.5s.8.7-.5,4.7.2,4.1,0,5.3-1.7,1.8-1.5,3.6,4.7,2,4.9,3.2-2.3,1.6-2,1.9,1.1.6,3.2.2,2.4-3.3-1.2-5c0,0-4.7-2,0-2.8,2.4-.2,2.3-1.6,1.9-2s-2.8-.6-3.2-1-.8-1.7.8-3.8a21.2,21.2,0,0,0,.4-3.8l32,7.4,3.5.4.4-1.4Zm-24.9,66.7c1.7-6.3,7.1-10.8,8.8-16.9.6-2,3.6-21.6,4.8-22.3s10.8.2,10.8.2c-4.3-3.5-10.7-3.3-10.7-3.3l-1.5-2.8-1.4.3c.1,5.2-1.4,12.5-2.3,18.6s-1.6,12.3-7.5,16.7c-8,5.2-8.7,14.7-8.7,14.7-.2,11.1-4.3,33.5-4.3,33.5s-8.8,41.4-6.8,46.2,9.6,6.6,14.3,7.5,14.2,0,16.4-.4a3.7,3.7,0,0,0,2.8-2.8c-.1.1-1.1,1-10.9.5-12.5-.7-11.9-14.1-12-17.1s5.5-30.9,5.5-30.9C216.3,166.7,217.5,133,218.1,130.8Zm-33.5-18.9,9.9-4.5,13.4-5.4a8.2,8.2,0,0,0-.6-1.4c-7.1,2.4-20.9,8.4-21.6,8.8L177,114c-1.6.7-12.2,4.5-12.2,4.5s-19.3,7.4-20.2,7.6-4.3.1-5.1.3-12,5.2-13.5,5.4-4.8-3-4.8-3l-1.2,1,1.1,1.6c3,3.5,5.2,2.3,5.2,2.3s9.5-4.3,12.5-5.2,7.3-1.2,8.9-1.7l18.5-7.3s-1.3,27.7-1.4,28.4-2.2,4.4-3.9,8.6.3,15.8.7,18.6-.7,17.4-.7,21.4.9,17.8,1.1,19.4,1.3,4.6,6.1,6,11.8.6,14.2-.1c7.1-1.7,7.9-3.2,5.6-3.8s-9.3,3.4-14.2,1.2-5.7-14-5.7-20-.2-9.6-.1-14.8-2.7-21.5-2.7-21.5c-1.4-9.5,1.8-14,1.8-14s1-21.7,1.6-26.1,3-3.5,7.1-4.1,3.6-2,5.4-4.5c-4.8,3.2-6.6,2.6-6.6,2.6l4.9-2.5Zm0,0,9.9-4.5,13.4-5.4a8.2,8.2,0,0,0-.6-1.4c-7.1,2.4-20.9,8.4-21.6,8.8L177,114c-1.6.7-12.2,4.5-12.2,4.5s-19.3,7.4-20.2,7.6-4.3.1-5.1.3-12,5.2-13.5,5.4-4.8-3-4.8-3l-1.2,1,1.1,1.6c3,3.5,5.2,2.3,5.2,2.3s9.5-4.3,12.5-5.2,7.3-1.2,8.9-1.7l18.5-7.3s-1.3,27.7-1.4,28.4-2.2,4.4-3.9,8.6.3,15.8.7,18.6-.7,17.4-.7,21.4.9,17.8,1.1,19.4,1.3,4.6,6.1,6,11.8.6,14.2-.1c7.1-1.7,7.9-3.2,5.6-3.8s-9.3,3.4-14.2,1.2-5.7-14-5.7-20-.2-9.6-.1-14.8-2.7-21.5-2.7-21.5c-1.4-9.5,1.8-14,1.8-14s1-21.7,1.6-26.1,3-3.5,7.1-4.1,3.6-2,5.4-4.5c-4.8,3.2-6.6,2.6-6.6,2.6l4.9-2.5Zm33.5,18.9c1.7-6.3,7.1-10.8,8.8-16.9.6-2,3.6-21.6,4.8-22.3s10.8.2,10.8.2c-4.3-3.5-10.7-3.3-10.7-3.3l-1.5-2.8-1.4.3c.1,5.2-1.4,12.5-2.3,18.6s-1.6,12.3-7.5,16.7c-8,5.2-8.7,14.7-8.7,14.7-.2,11.1-4.3,33.5-4.3,33.5s-8.8,41.4-6.8,46.2,9.6,6.6,14.3,7.5,14.2,0,16.4-.4a3.7,3.7,0,0,0,2.8-2.8c-.1.1-1.1,1-10.9.5-12.5-.7-11.9-14.1-12-17.1s5.5-30.9,5.5-30.9C216.3,166.7,217.5,133,218.1,130.8ZM243,64.1s-14.2-3.5-17-4-10.5-1.6-11.9-2.2-5.9-2.4-5.1-5.3,3.1-2.1,2.9-4.4-.4-2.6-3.1-3.4-8.1,9.3-3.9,12.7c2,2.2,30.7,7.5,30.7,7.5s.8.7-.5,4.7.2,4.1,0,5.3-1.7,1.8-1.5,3.6,4.7,2,4.9,3.2-2.3,1.6-2,1.9,1.1.6,3.2.2,2.4-3.3-1.2-5c0,0-4.7-2,0-2.8,2.4-.2,2.3-1.6,1.9-2s-2.8-.6-3.2-1-.8-1.7.8-3.8a21.2,21.2,0,0,0,.4-3.8l32,7.4,3.5.4.4-1.4Zm0,0s-14.2-3.5-17-4-10.5-1.6-11.9-2.2-5.9-2.4-5.1-5.3,3.1-2.1,2.9-4.4-.4-2.6-3.1-3.4-8.1,9.3-3.9,12.7c2,2.2,30.7,7.5,30.7,7.5s.8.7-.5,4.7.2,4.1,0,5.3-1.7,1.8-1.5,3.6,4.7,2,4.9,3.2-2.3,1.6-2,1.9,1.1.6,3.2.2,2.4-3.3-1.2-5c0,0-4.7-2,0-2.8,2.4-.2,2.3-1.6,1.9-2s-2.8-.6-3.2-1-.8-1.7.8-3.8a21.2,21.2,0,0,0,.4-3.8l32,7.4,3.5.4.4-1.4Zm-24.9,66.7c1.7-6.3,7.1-10.8,8.8-16.9.6-2,3.6-21.6,4.8-22.3s10.8.2,10.8.2c-4.3-3.5-10.7-3.3-10.7-3.3l-1.5-2.8-1.4.3c.1,5.2-1.4,12.5-2.3,18.6s-1.6,12.3-7.5,16.7c-8,5.2-8.7,14.7-8.7,14.7-.2,11.1-4.3,33.5-4.3,33.5s-8.8,41.4-6.8,46.2,9.6,6.6,14.3,7.5,14.2,0,16.4-.4a3.7,3.7,0,0,0,2.8-2.8c-.1.1-1.1,1-10.9.5-12.5-.7-11.9-14.1-12-17.1s5.5-30.9,5.5-30.9C216.3,166.7,217.5,133,218.1,130.8Zm-33.5-18.9,9.9-4.5,13.4-5.4a8.2,8.2,0,0,0-.6-1.4c-7.1,2.4-20.9,8.4-21.6,8.8L177,114c-1.6.7-12.2,4.5-12.2,4.5s-19.3,7.4-20.2,7.6-4.3.1-5.1.3-12,5.2-13.5,5.4-4.8-3-4.8-3l-1.2,1,1.1,1.6c3,3.5,5.2,2.3,5.2,2.3s9.5-4.3,12.5-5.2,7.3-1.2,8.9-1.7l18.5-7.3s-1.3,27.7-1.4,28.4-2.2,4.4-3.9,8.6.3,15.8.7,18.6-.7,17.4-.7,21.4.9,17.8,1.1,19.4,1.3,4.6,6.1,6,11.8.6,14.2-.1c7.1-1.7,7.9-3.2,5.6-3.8s-9.3,3.4-14.2,1.2-5.7-14-5.7-20-.2-9.6-.1-14.8-2.7-21.5-2.7-21.5c-1.4-9.5,1.8-14,1.8-14s1-21.7,1.6-26.1,3-3.5,7.1-4.1,3.6-2,5.4-4.5c-4.8,3.2-6.6,2.6-6.6,2.6l4.9-2.5Zm0,0,9.9-4.5,13.4-5.4a8.2,8.2,0,0,0-.6-1.4c-7.1,2.4-20.9,8.4-21.6,8.8L177,114c-1.6.7-12.2,4.5-12.2,4.5s-19.3,7.4-20.2,7.6-4.3.1-5.1.3-12,5.2-13.5,5.4-4.8-3-4.8-3l-1.2,1,1.1,1.6c3,3.5,5.2,2.3,5.2,2.3s9.5-4.3,12.5-5.2,7.3-1.2,8.9-1.7l18.5-7.3s-1.3,27.7-1.4,28.4-2.2,4.4-3.9,8.6.3,15.8.7,18.6-.7,17.4-.7,21.4.9,17.8,1.1,19.4,1.3,4.6,6.1,6,11.8.6,14.2-.1c7.1-1.7,7.9-3.2,5.6-3.8s-9.3,3.4-14.2,1.2-5.7-14-5.7-20-.2-9.6-.1-14.8-2.7-21.5-2.7-21.5c-1.4-9.5,1.8-14,1.8-14s1-21.7,1.6-26.1,3-3.5,7.1-4.1,3.6-2,5.4-4.5c-4.8,3.2-6.6,2.6-6.6,2.6l4.9-2.5Zm33.5,18.9c1.7-6.3,7.1-10.8,8.8-16.9.6-2,3.6-21.6,4.8-22.3s10.8.2,10.8.2c-4.3-3.5-10.7-3.3-10.7-3.3l-1.5-2.8-1.4.3c.1,5.2-1.4,12.5-2.3,18.6s-1.6,12.3-7.5,16.7c-8,5.2-8.7,14.7-8.7,14.7-.2,11.1-4.3,33.5-4.3,33.5s-8.8,41.4-6.8,46.2,9.6,6.6,14.3,7.5,14.2,0,16.4-.4a3.7,3.7,0,0,0,2.8-2.8c-.1.1-1.1,1-10.9.5-12.5-.7-11.9-14.1-12-17.1s5.5-30.9,5.5-30.9C216.3,166.7,217.5,133,218.1,130.8ZM243,64.1s-14.2-3.5-17-4-10.5-1.6-11.9-2.2-5.9-2.4-5.1-5.3,3.1-2.1,2.9-4.4-.4-2.6-3.1-3.4-8.1,9.3-3.9,12.7c2,2.2,30.7,7.5,30.7,7.5s.8.7-.5,4.7.2,4.1,0,5.3-1.7,1.8-1.5,3.6,4.7,2,4.9,3.2-2.3,1.6-2,1.9,1.1.6,3.2.2,2.4-3.3-1.2-5c0,0-4.7-2,0-2.8,2.4-.2,2.3-1.6,1.9-2s-2.8-.6-3.2-1-.8-1.7.8-3.8a21.2,21.2,0,0,0,.4-3.8l32,7.4,3.5.4.4-1.4Zm0,0s-14.2-3.5-17-4-10.5-1.6-11.9-2.2-5.9-2.4-5.1-5.3,3.1-2.1,2.9-4.4-.4-2.6-3.1-3.4-8.1,9.3-3.9,12.7c2,2.2,30.7,7.5,30.7,7.5s.8.7-.5,4.7.2,4.1,0,5.3-1.7,1.8-1.5,3.6,4.7,2,4.9,3.2-2.3,1.6-2,1.9,1.1.6,3.2.2,2.4-3.3-1.2-5c0,0-4.7-2,0-2.8,2.4-.2,2.3-1.6,1.9-2s-2.8-.6-3.2-1-.8-1.7.8-3.8a21.2,21.2,0,0,0,.4-3.8l32,7.4,3.5.4.4-1.4Zm-24.9,66.7c1.7-6.3,7.1-10.8,8.8-16.9.6-2,3.6-21.6,4.8-22.3s10.8.2,10.8.2c-4.3-3.5-10.7-3.3-10.7-3.3l-1.5-2.8-1.4.3c.1,5.2-1.4,12.5-2.3,18.6s-1.6,12.3-7.5,16.7c-8,5.2-8.7,14.7-8.7,14.7-.2,11.1-4.3,33.5-4.3,33.5s-8.8,41.4-6.8,46.2,9.6,6.6,14.3,7.5,14.2,0,16.4-.4a3.7,3.7,0,0,0,2.8-2.8c-.1.1-1.1,1-10.9.5-12.5-.7-11.9-14.1-12-17.1s5.5-30.9,5.5-30.9C216.3,166.7,217.5,133,218.1,130.8Zm-33.5-18.9,9.9-4.5,13.4-5.4a8.2,8.2,0,0,0-.6-1.4c-7.1,2.4-20.9,8.4-21.6,8.8L177,114c-1.6.7-12.2,4.5-12.2,4.5s-19.3,7.4-20.2,7.6-4.3.1-5.1.3-12,5.2-13.5,5.4-4.8-3-4.8-3l-1.2,1,1.1,1.6c3,3.5,5.2,2.3,5.2,2.3s9.5-4.3,12.5-5.2,7.3-1.2,8.9-1.7l18.5-7.3s-1.3,27.7-1.4,28.4-2.2,4.4-3.9,8.6.3,15.8.7,18.6-.7,17.4-.7,21.4.9,17.8,1.1,19.4,1.3,4.6,6.1,6,11.8.6,14.2-.1c7.1-1.7,7.9-3.2,5.6-3.8s-9.3,3.4-14.2,1.2-5.7-14-5.7-20-.2-9.6-.1-14.8-2.7-21.5-2.7-21.5c-1.4-9.5,1.8-14,1.8-14s1-21.7,1.6-26.1,3-3.5,7.1-4.1,3.6-2,5.4-4.5c-4.8,3.2-6.6,2.6-6.6,2.6l4.9-2.5Zm0,0,9.9-4.5,13.4-5.4a8.2,8.2,0,0,0-.6-1.4c-7.1,2.4-20.9,8.4-21.6,8.8L177,114c-1.6.7-12.2,4.5-12.2,4.5s-19.3,7.4-20.2,7.6-4.3.1-5.1.3-12,5.2-13.5,5.4-4.8-3-4.8-3l-1.2,1,1.1,1.6c3,3.5,5.2,2.3,5.2,2.3s9.5-4.3,12.5-5.2,7.3-1.2,8.9-1.7l18.5-7.3s-1.3,27.7-1.4,28.4-2.2,4.4-3.9,8.6.3,15.8.7,18.6-.7,17.4-.7,21.4.9,17.8,1.1,19.4,1.3,4.6,6.1,6,11.8.6,14.2-.1c7.1-1.7,7.9-3.2,5.6-3.8s-9.3,3.4-14.2,1.2-5.7-14-5.7-20-.2-9.6-.1-14.8-2.7-21.5-2.7-21.5c-1.4-9.5,1.8-14,1.8-14s1-21.7,1.6-26.1,3-3.5,7.1-4.1,3.6-2,5.4-4.5c-4.8,3.2-6.6,2.6-6.6,2.6l4.9-2.5Zm33.5,18.9c1.7-6.3,7.1-10.8,8.8-16.9.6-2,3.6-21.6,4.8-22.3s10.8.2,10.8.2c-4.3-3.5-10.7-3.3-10.7-3.3l-1.5-2.8-1.4.3c.1,5.2-1.4,12.5-2.3,18.6s-1.6,12.3-7.5,16.7c-8,5.2-8.7,14.7-8.7,14.7-.2,11.1-4.3,33.5-4.3,33.5s-8.8,41.4-6.8,46.2,9.6,6.6,14.3,7.5,14.2,0,16.4-.4a3.7,3.7,0,0,0,2.8-2.8c-.1.1-1.1,1-10.9.5-12.5-.7-11.9-14.1-12-17.1s5.5-30.9,5.5-30.9C216.3,166.7,217.5,133,218.1,130.8ZM243,64.1s-14.2-3.5-17-4-10.5-1.6-11.9-2.2-5.9-2.4-5.1-5.3,3.1-2.1,2.9-4.4-.4-2.6-3.1-3.4-8.1,9.3-3.9,12.7c2,2.2,30.7,7.5,30.7,7.5s.8.7-.5,4.7.2,4.1,0,5.3-1.7,1.8-1.5,3.6,4.7,2,4.9,3.2-2.3,1.6-2,1.9,1.1.6,3.2.2,2.4-3.3-1.2-5c0,0-4.7-2,0-2.8,2.4-.2,2.3-1.6,1.9-2s-2.8-.6-3.2-1-.8-1.7.8-3.8a21.2,21.2,0,0,0,.4-3.8l32,7.4,3.5.4.4-1.4Zm0,0s-14.2-3.5-17-4-10.5-1.6-11.9-2.2-5.9-2.4-5.1-5.3,3.1-2.1,2.9-4.4-.4-2.6-3.1-3.4-8.1,9.3-3.9,12.7c2,2.2,30.7,7.5,30.7,7.5s.8.7-.5,4.7.2,4.1,0,5.3-1.7,1.8-1.5,3.6,4.7,2,4.9,3.2-2.3,1.6-2,1.9,1.1.6,3.2.2,2.4-3.3-1.2-5c0,0-4.7-2,0-2.8,2.4-.2,2.3-1.6,1.9-2s-2.8-.6-3.2-1-.8-1.7.8-3.8a21.2,21.2,0,0,0,.4-3.8l32,7.4,3.5.4.4-1.4Zm-24.9,66.7c1.7-6.3,7.1-10.8,8.8-16.9.6-2,3.6-21.6,4.8-22.3s10.8.2,10.8.2c-4.3-3.5-10.7-3.3-10.7-3.3l-1.5-2.8-1.4.3c.1,5.2-1.4,12.5-2.3,18.6s-1.6,12.3-7.5,16.7c-8,5.2-8.7,14.7-8.7,14.7-.2,11.1-4.3,33.5-4.3,33.5s-8.8,41.4-6.8,46.2,9.6,6.6,14.3,7.5,14.2,0,16.4-.4a3.7,3.7,0,0,0,2.8-2.8c-.1.1-1.1,1-10.9.5-12.5-.7-11.9-14.1-12-17.1s5.5-30.9,5.5-30.9C216.3,166.7,217.5,133,218.1,130.8Zm-33.5-18.9,9.9-4.5,13.4-5.4a8.2,8.2,0,0,0-.6-1.4c-7.1,2.4-20.9,8.4-21.6,8.8L177,114c-1.6.7-12.2,4.5-12.2,4.5s-19.3,7.4-20.2,7.6-4.3.1-5.1.3-12,5.2-13.5,5.4-4.8-3-4.8-3l-1.2,1,1.1,1.6c3,3.5,5.2,2.3,5.2,2.3s9.5-4.3,12.5-5.2,7.3-1.2,8.9-1.7l18.5-7.3s-1.3,27.7-1.4,28.4-2.2,4.4-3.9,8.6.3,15.8.7,18.6-.7,17.4-.7,21.4.9,17.8,1.1,19.4,1.3,4.6,6.1,6,11.8.6,14.2-.1c7.1-1.7,7.9-3.2,5.6-3.8s-9.3,3.4-14.2,1.2-5.7-14-5.7-20-.2-9.6-.1-14.8-2.7-21.5-2.7-21.5c-1.4-9.5,1.8-14,1.8-14s1-21.7,1.6-26.1,3-3.5,7.1-4.1,3.6-2,5.4-4.5c-4.8,3.2-6.6,2.6-6.6,2.6l4.9-2.5Zm0,0,9.9-4.5,13.4-5.4a8.2,8.2,0,0,0-.6-1.4c-7.1,2.4-20.9,8.4-21.6,8.8L177,114c-1.6.7-12.2,4.5-12.2,4.5s-19.3,7.4-20.2,7.6-4.3.1-5.1.3-12,5.2-13.5,5.4-4.8-3-4.8-3l-1.2,1,1.1,1.6c3,3.5,5.2,2.3,5.2,2.3s9.5-4.3,12.5-5.2,7.3-1.2,8.9-1.7l18.5-7.3s-1.3,27.7-1.4,28.4-2.2,4.4-3.9,8.6.3,15.8.7,18.6-.7,17.4-.7,21.4.9,17.8,1.1,19.4,1.3,4.6,6.1,6,11.8.6,14.2-.1c7.1-1.7,7.9-3.2,5.6-3.8s-9.3,3.4-14.2,1.2-5.7-14-5.7-20-.2-9.6-.1-14.8-2.7-21.5-2.7-21.5c-1.4-9.5,1.8-14,1.8-14s1-21.7,1.6-26.1,3-3.5,7.1-4.1,3.6-2,5.4-4.5c-4.8,3.2-6.6,2.6-6.6,2.6l4.9-2.5Zm33.5,18.9c1.7-6.3,7.1-10.8,8.8-16.9.6-2,3.6-21.6,4.8-22.3s10.8.2,10.8.2c-4.3-3.5-10.7-3.3-10.7-3.3l-1.5-2.8-1.4.3c.1,5.2-1.4,12.5-2.3,18.6s-1.6,12.3-7.5,16.7c-8,5.2-8.7,14.7-8.7,14.7-.2,11.1-4.3,33.5-4.3,33.5s-8.8,41.4-6.8,46.2,9.6,6.6,14.3,7.5,14.2,0,16.4-.4a3.7,3.7,0,0,0,2.8-2.8c-.1.1-1.1,1-10.9.5-12.5-.7-11.9-14.1-12-17.1s5.5-30.9,5.5-30.9C216.3,166.7,217.5,133,218.1,130.8ZM243,64.1s-14.2-3.5-17-4-10.5-1.6-11.9-2.2-5.9-2.4-5.1-5.3,3.1-2.1,2.9-4.4-.4-2.6-3.1-3.4-8.1,9.3-3.9,12.7c2,2.2,30.7,7.5,30.7,7.5s.8.7-.5,4.7.2,4.1,0,5.3-1.7,1.8-1.5,3.6,4.7,2,4.9,3.2-2.3,1.6-2,1.9,1.1.6,3.2.2,2.4-3.3-1.2-5c0,0-4.7-2,0-2.8,2.4-.2,2.3-1.6,1.9-2s-2.8-.6-3.2-1-.8-1.7.8-3.8a21.2,21.2,0,0,0,.4-3.8l32,7.4,3.5.4.4-1.4Zm0,0s-14.2-3.5-17-4-10.5-1.6-11.9-2.2-5.9-2.4-5.1-5.3,3.1-2.1,2.9-4.4-.4-2.6-3.1-3.4-8.1,9.3-3.9,12.7c2,2.2,30.7,7.5,30.7,7.5s.8.7-.5,4.7.2,4.1,0,5.3-1.7,1.8-1.5,3.6,4.7,2,4.9,3.2-2.3,1.6-2,1.9,1.1.6,3.2.2,2.4-3.3-1.2-5c0,0-4.7-2,0-2.8,2.4-.2,2.3-1.6,1.9-2s-2.8-.6-3.2-1-.8-1.7.8-3.8a21.2,21.2,0,0,0,.4-3.8l32,7.4,3.5.4.4-1.4Zm-24.9,66.7c1.7-6.3,7.1-10.8,8.8-16.9.6-2,3.6-21.6,4.8-22.3s10.8.2,10.8.2c-4.3-3.5-10.7-3.3-10.7-3.3l-1.5-2.8-1.4.3c.1,5.2-1.4,12.5-2.3,18.6s-1.6,12.3-7.5,16.7c-8,5.2-8.7,14.7-8.7,14.7-.2,11.1-4.3,33.5-4.3,33.5s-8.8,41.4-6.8,46.2,9.6,6.6,14.3,7.5,14.2,0,16.4-.4a3.7,3.7,0,0,0,2.8-2.8c-.1.1-1.1,1-10.9.5-12.5-.7-11.9-14.1-12-17.1s5.5-30.9,5.5-30.9C216.3,166.7,217.5,133,218.1,130.8Zm-33.5-18.9,9.9-4.5,13.4-5.4a8.2,8.2,0,0,0-.6-1.4c-7.1,2.4-20.9,8.4-21.6,8.8L177,114c-1.6.7-12.2,4.5-12.2,4.5s-19.3,7.4-20.2,7.6-4.3.1-5.1.3-12,5.2-13.5,5.4-4.8-3-4.8-3l-1.2,1,1.1,1.6c3,3.5,5.2,2.3,5.2,2.3s9.5-4.3,12.5-5.2,7.3-1.2,8.9-1.7l18.5-7.3s-1.3,27.7-1.4,28.4-2.2,4.4-3.9,8.6.3,15.8.7,18.6-.7,17.4-.7,21.4.9,17.8,1.1,19.4,1.3,4.6,6.1,6,11.8.6,14.2-.1c7.1-1.7,7.9-3.2,5.6-3.8s-9.3,3.4-14.2,1.2-5.7-14-5.7-20-.2-9.6-.1-14.8-2.7-21.5-2.7-21.5c-1.4-9.5,1.8-14,1.8-14s1-21.7,1.6-26.1,3-3.5,7.1-4.1,3.6-2,5.4-4.5c-4.8,3.2-6.6,2.6-6.6,2.6l4.9-2.5Zm0,0,9.9-4.5,13.4-5.4a8.2,8.2,0,0,0-.6-1.4c-7.1,2.4-20.9,8.4-21.6,8.8L177,114c-1.6.7-12.2,4.5-12.2,4.5s-19.3,7.4-20.2,7.6-4.3.1-5.1.3-12,5.2-13.5,5.4-4.8-3-4.8-3l-1.2,1,1.1,1.6c3,3.5,5.2,2.3,5.2,2.3s9.5-4.3,12.5-5.2,7.3-1.2,8.9-1.7l18.5-7.3s-1.3,27.7-1.4,28.4-2.2,4.4-3.9,8.6.3,15.8.7,18.6-.7,17.4-.7,21.4.9,17.8,1.1,19.4,1.3,4.6,6.1,6,11.8.6,14.2-.1c7.1-1.7,7.9-3.2,5.6-3.8s-9.3,3.4-14.2,1.2-5.7-14-5.7-20-.2-9.6-.1-14.8-2.7-21.5-2.7-21.5c-1.4-9.5,1.8-14,1.8-14s1-21.7,1.6-26.1,3-3.5,7.1-4.1,3.6-2,5.4-4.5c-4.8,3.2-6.6,2.6-6.6,2.6l4.9-2.5Zm33.5,18.9c1.7-6.3,7.1-10.8,8.8-16.9.6-2,3.6-21.6,4.8-22.3s10.8.2,10.8.2c-4.3-3.5-10.7-3.3-10.7-3.3l-1.5-2.8-1.4.3c.1,5.2-1.4,12.5-2.3,18.6s-1.6,12.3-7.5,16.7c-8,5.2-8.7,14.7-8.7,14.7-.2,11.1-4.3,33.5-4.3,33.5s-8.8,41.4-6.8,46.2,9.6,6.6,14.3,7.5,14.2,0,16.4-.4a3.7,3.7,0,0,0,2.8-2.8c-.1.1-1.1,1-10.9.5-12.5-.7-11.9-14.1-12-17.1s5.5-30.9,5.5-30.9C216.3,166.7,217.5,133,218.1,130.8ZM243,64.1s-14.2-3.5-17-4-10.5-1.6-11.9-2.2-5.9-2.4-5.1-5.3,3.1-2.1,2.9-4.4-.4-2.6-3.1-3.4-8.1,9.3-3.9,12.7c2,2.2,30.7,7.5,30.7,7.5s.8.7-.5,4.7.2,4.1,0,5.3-1.7,1.8-1.5,3.6,4.7,2,4.9,3.2-2.3,1.6-2,1.9,1.1.6,3.2.2,2.4-3.3-1.2-5c0,0-4.7-2,0-2.8,2.4-.2,2.3-1.6,1.9-2s-2.8-.6-3.2-1-.8-1.7.8-3.8a21.2,21.2,0,0,0,.4-3.8l32,7.4,3.5.4.4-1.4Zm0,0s-14.2-3.5-17-4-10.5-1.6-11.9-2.2-5.9-2.4-5.1-5.3,3.1-2.1,2.9-4.4-.4-2.6-3.1-3.4-8.1,9.3-3.9,12.7c2,2.2,30.7,7.5,30.7,7.5s.8.7-.5,4.7.2,4.1,0,5.3-1.7,1.8-1.5,3.6,4.7,2,4.9,3.2-2.3,1.6-2,1.9,1.1.6,3.2.2,2.4-3.3-1.2-5c0,0-4.7-2,0-2.8,2.4-.2,2.3-1.6,1.9-2s-2.8-.6-3.2-1-.8-1.7.8-3.8a21.2,21.2,0,0,0,.4-3.8l32,7.4,3.5.4.4-1.4Zm-24.9,66.7c1.7-6.3,7.1-10.8,8.8-16.9.6-2,3.6-21.6,4.8-22.3s10.8.2,10.8.2c-4.3-3.5-10.7-3.3-10.7-3.3l-1.5-2.8-1.4.3c.1,5.2-1.4,12.5-2.3,18.6s-1.6,12.3-7.5,16.7c-8,5.2-8.7,14.7-8.7,14.7-.2,11.1-4.3,33.5-4.3,33.5s-8.8,41.4-6.8,46.2,9.6,6.6,14.3,7.5,14.2,0,16.4-.4a3.7,3.7,0,0,0,2.8-2.8c-.1.1-1.1,1-10.9.5-12.5-.7-11.9-14.1-12-17.1s5.5-30.9,5.5-30.9C216.3,166.7,217.5,133,218.1,130.8Zm-33.5-18.9,9.9-4.5,13.4-5.4a8.2,8.2,0,0,0-.6-1.4c-7.1,2.4-20.9,8.4-21.6,8.8L177,114c-1.6.7-12.2,4.5-12.2,4.5s-19.3,7.4-20.2,7.6-4.3.1-5.1.3-12,5.2-13.5,5.4-4.8-3-4.8-3l-1.2,1,1.1,1.6c3,3.5,5.2,2.3,5.2,2.3s9.5-4.3,12.5-5.2,7.3-1.2,8.9-1.7l18.5-7.3s-1.3,27.7-1.4,28.4-2.2,4.4-3.9,8.6.3,15.8.7,18.6-.7,17.4-.7,21.4.9,17.8,1.1,19.4,1.3,4.6,6.1,6,11.8.6,14.2-.1c7.1-1.7,7.9-3.2,5.6-3.8s-9.3,3.4-14.2,1.2-5.7-14-5.7-20-.2-9.6-.1-14.8-2.7-21.5-2.7-21.5c-1.4-9.5,1.8-14,1.8-14s1-21.7,1.6-26.1,3-3.5,7.1-4.1,3.6-2,5.4-4.5c-4.8,3.2-6.6,2.6-6.6,2.6l4.9-2.5Zm0,0,9.9-4.5,13.4-5.4a8.2,8.2,0,0,0-.6-1.4c-7.1,2.4-20.9,8.4-21.6,8.8L177,114c-1.6.7-12.2,4.5-12.2,4.5s-19.3,7.4-20.2,7.6-4.3.1-5.1.3-12,5.2-13.5,5.4-4.8-3-4.8-3l-1.2,1,1.1,1.6c3,3.5,5.2,2.3,5.2,2.3s9.5-4.3,12.5-5.2,7.3-1.2,8.9-1.7l18.5-7.3s-1.3,27.7-1.4,28.4-2.2,4.4-3.9,8.6.3,15.8.7,18.6-.7,17.4-.7,21.4.9,17.8,1.1,19.4,1.3,4.6,6.1,6,11.8.6,14.2-.1c7.1-1.7,7.9-3.2,5.6-3.8s-9.3,3.4-14.2,1.2-5.7-14-5.7-20-.2-9.6-.1-14.8-2.7-21.5-2.7-21.5c-1.4-9.5,1.8-14,1.8-14s1-21.7,1.6-26.1,3-3.5,7.1-4.1,3.6-2,5.4-4.5c-4.8,3.2-6.6,2.6-6.6,2.6l4.9-2.5Zm33.5,18.9c1.7-6.3,7.1-10.8,8.8-16.9.6-2,3.6-21.6,4.8-22.3s10.8.2,10.8.2c-4.3-3.5-10.7-3.3-10.7-3.3l-1.5-2.8-1.4.3c.1,5.2-1.4,12.5-2.3,18.6s-1.6,12.3-7.5,16.7c-8,5.2-8.7,14.7-8.7,14.7-.2,11.1-4.3,33.5-4.3,33.5s-8.8,41.4-6.8,46.2,9.6,6.6,14.3,7.5,14.2,0,16.4-.4a3.7,3.7,0,0,0,2.8-2.8c-.1.1-1.1,1-10.9.5-12.5-.7-11.9-14.1-12-17.1s5.5-30.9,5.5-30.9C216.3,166.7,217.5,133,218.1,130.8ZM243,64.1s-14.2-3.5-17-4-10.5-1.6-11.9-2.2-5.9-2.4-5.1-5.3,3.1-2.1,2.9-4.4-.4-2.6-3.1-3.4-8.1,9.3-3.9,12.7c2,2.2,30.7,7.5,30.7,7.5s.8.7-.5,4.7.2,4.1,0,5.3-1.7,1.8-1.5,3.6,4.7,2,4.9,3.2-2.3,1.6-2,1.9,1.1.6,3.2.2,2.4-3.3-1.2-5c0,0-4.7-2,0-2.8,2.4-.2,2.3-1.6,1.9-2s-2.8-.6-3.2-1-.8-1.7.8-3.8a21.2,21.2,0,0,0,.4-3.8l32,7.4,3.5.4.4-1.4Zm0,0s-14.2-3.5-17-4-10.5-1.6-11.9-2.2-5.9-2.4-5.1-5.3,3.1-2.1,2.9-4.4-.4-2.6-3.1-3.4-8.1,9.3-3.9,12.7c2,2.2,30.7,7.5,30.7,7.5s.8.7-.5,4.7.2,4.1,0,5.3-1.7,1.8-1.5,3.6,4.7,2,4.9,3.2-2.3,1.6-2,1.9,1.1.6,3.2.2,2.4-3.3-1.2-5c0,0-4.7-2,0-2.8,2.4-.2,2.3-1.6,1.9-2s-2.8-.6-3.2-1-.8-1.7.8-3.8a21.2,21.2,0,0,0,.4-3.8l32,7.4,3.5.4.4-1.4Zm-24.9,66.7c1.7-6.3,7.1-10.8,8.8-16.9.6-2,3.6-21.6,4.8-22.3s10.8.2,10.8.2c-4.3-3.5-10.7-3.3-10.7-3.3l-1.5-2.8-1.4.3c.1,5.2-1.4,12.5-2.3,18.6s-1.6,12.3-7.5,16.7c-8,5.2-8.7,14.7-8.7,14.7-.2,11.1-4.3,33.5-4.3,33.5s-8.8,41.4-6.8,46.2,9.6,6.6,14.3,7.5,14.2,0,16.4-.4a3.7,3.7,0,0,0,2.8-2.8c-.1.1-1.1,1-10.9.5-12.5-.7-11.9-14.1-12-17.1s5.5-30.9,5.5-30.9C216.3,166.7,217.5,133,218.1,130.8Zm-33.5-18.9,9.9-4.5,13.4-5.4a8.2,8.2,0,0,0-.6-1.4c-7.1,2.4-20.9,8.4-21.6,8.8L177,114c-1.6.7-12.2,4.5-12.2,4.5s-19.3,7.4-20.2,7.6-4.3.1-5.1.3-12,5.2-13.5,5.4-4.8-3-4.8-3l-1.2,1,1.1,1.6c3,3.5,5.2,2.3,5.2,2.3s9.5-4.3,12.5-5.2,7.3-1.2,8.9-1.7l18.5-7.3s-1.3,27.7-1.4,28.4-2.2,4.4-3.9,8.6.3,15.8.7,18.6-.7,17.4-.7,21.4.9,17.8,1.1,19.4,1.3,4.6,6.1,6,11.8.6,14.2-.1c7.1-1.7,7.9-3.2,5.6-3.8s-9.3,3.4-14.2,1.2-5.7-14-5.7-20-.2-9.6-.1-14.8-2.7-21.5-2.7-21.5c-1.4-9.5,1.8-14,1.8-14s1-21.7,1.6-26.1,3-3.5,7.1-4.1,3.6-2,5.4-4.5c-4.8,3.2-6.6,2.6-6.6,2.6l4.9-2.5Zm0,0,9.9-4.5,13.4-5.4a8.2,8.2,0,0,0-.6-1.4c-7.1,2.4-20.9,8.4-21.6,8.8L177,114c-1.6.7-12.2,4.5-12.2,4.5s-19.3,7.4-20.2,7.6-4.3.1-5.1.3-12,5.2-13.5,5.4-4.8-3-4.8-3l-1.2,1,1.1,1.6c3,3.5,5.2,2.3,5.2,2.3s9.5-4.3,12.5-5.2,7.3-1.2,8.9-1.7l18.5-7.3s-1.3,27.7-1.4,28.4-2.2,4.4-3.9,8.6.3,15.8.7,18.6-.7,17.4-.7,21.4.9,17.8,1.1,19.4,1.3,4.6,6.1,6,11.8.6,14.2-.1c7.1-1.7,7.9-3.2,5.6-3.8s-9.3,3.4-14.2,1.2-5.7-14-5.7-20-.2-9.6-.1-14.8-2.7-21.5-2.7-21.5c-1.4-9.5,1.8-14,1.8-14s1-21.7,1.6-26.1,3-3.5,7.1-4.1,3.6-2,5.4-4.5c-4.8,3.2-6.6,2.6-6.6,2.6l4.9-2.5Zm33.5,18.9c1.7-6.3,7.1-10.8,8.8-16.9.6-2,3.6-21.6,4.8-22.3s10.8.2,10.8.2c-4.3-3.5-10.7-3.3-10.7-3.3l-1.5-2.8-1.4.3c.1,5.2-1.4,12.5-2.3,18.6s-1.6,12.3-7.5,16.7c-8,5.2-8.7,14.7-8.7,14.7-.2,11.1-4.3,33.5-4.3,33.5s-8.8,41.4-6.8,46.2,9.6,6.6,14.3,7.5,14.2,0,16.4-.4a3.7,3.7,0,0,0,2.8-2.8c-.1.1-1.1,1-10.9.5-12.5-.7-11.9-14.1-12-17.1s5.5-30.9,5.5-30.9C216.3,166.7,217.5,133,218.1,130.8ZM243,64.1s-14.2-3.5-17-4-10.5-1.6-11.9-2.2-5.9-2.4-5.1-5.3,3.1-2.1,2.9-4.4-.4-2.6-3.1-3.4-8.1,9.3-3.9,12.7c2,2.2,30.7,7.5,30.7,7.5s.8.7-.5,4.7.2,4.1,0,5.3-1.7,1.8-1.5,3.6,4.7,2,4.9,3.2-2.3,1.6-2,1.9,1.1.6,3.2.2,2.4-3.3-1.2-5c0,0-4.7-2,0-2.8,2.4-.2,2.3-1.6,1.9-2s-2.8-.6-3.2-1-.8-1.7.8-3.8a21.2,21.2,0,0,0,.4-3.8l32,7.4,3.5.4.4-1.4Zm0,0s-14.2-3.5-17-4-10.5-1.6-11.9-2.2-5.9-2.4-5.1-5.3,3.1-2.1,2.9-4.4-.4-2.6-3.1-3.4-8.1,9.3-3.9,12.7c2,2.2,30.7,7.5,30.7,7.5s.8.7-.5,4.7.2,4.1,0,5.3-1.7,1.8-1.5,3.6,4.7,2,4.9,3.2-2.3,1.6-2,1.9,1.1.6,3.2.2,2.4-3.3-1.2-5c0,0-4.7-2,0-2.8,2.4-.2,2.3-1.6,1.9-2s-2.8-.6-3.2-1-.8-1.7.8-3.8a21.2,21.2,0,0,0,.4-3.8l32,7.4,3.5.4.4-1.4Zm-24.9,66.7c1.7-6.3,7.1-10.8,8.8-16.9.6-2,3.6-21.6,4.8-22.3s10.8.2,10.8.2c-4.3-3.5-10.7-3.3-10.7-3.3l-1.5-2.8-1.4.3c.1,5.2-1.4,12.5-2.3,18.6s-1.6,12.3-7.5,16.7c-8,5.2-8.7,14.7-8.7,14.7-.2,11.1-4.3,33.5-4.3,33.5s-8.8,41.4-6.8,46.2,9.6,6.6,14.3,7.5,14.2,0,16.4-.4a3.7,3.7,0,0,0,2.8-2.8c-.1.1-1.1,1-10.9.5-12.5-.7-11.9-14.1-12-17.1s5.5-30.9,5.5-30.9C216.3,166.7,217.5,133,218.1,130.8Zm-33.5-18.9,9.9-4.5,13.4-5.4a8.2,8.2,0,0,0-.6-1.4c-7.1,2.4-20.9,8.4-21.6,8.8L177,114c-1.6.7-12.2,4.5-12.2,4.5s-19.3,7.4-20.2,7.6-4.3.1-5.1.3-12,5.2-13.5,5.4-4.8-3-4.8-3l-1.2,1,1.1,1.6c3,3.5,5.2,2.3,5.2,2.3s9.5-4.3,12.5-5.2,7.3-1.2,8.9-1.7l18.5-7.3s-1.3,27.7-1.4,28.4-2.2,4.4-3.9,8.6.3,15.8.7,18.6-.7,17.4-.7,21.4.9,17.8,1.1,19.4,1.3,4.6,6.1,6,11.8.6,14.2-.1c7.1-1.7,7.9-3.2,5.6-3.8s-9.3,3.4-14.2,1.2-5.7-14-5.7-20-.2-9.6-.1-14.8-2.7-21.5-2.7-21.5c-1.4-9.5,1.8-14,1.8-14s1-21.7,1.6-26.1,3-3.5,7.1-4.1,3.6-2,5.4-4.5c-4.8,3.2-6.6,2.6-6.6,2.6l4.9-2.5Zm0,0,9.9-4.5,13.4-5.4a8.2,8.2,0,0,0-.6-1.4c-7.1,2.4-20.9,8.4-21.6,8.8L177,114c-1.6.7-12.2,4.5-12.2,4.5s-19.3,7.4-20.2,7.6-4.3.1-5.1.3-12,5.2-13.5,5.4-4.8-3-4.8-3l-1.2,1,1.1,1.6c3,3.5,5.2,2.3,5.2,2.3s9.5-4.3,12.5-5.2,7.3-1.2,8.9-1.7l18.5-7.3s-1.3,27.7-1.4,28.4-2.2,4.4-3.9,8.6.3,15.8.7,18.6-.7,17.4-.7,21.4.9,17.8,1.1,19.4,1.3,4.6,6.1,6,11.8.6,14.2-.1c7.1-1.7,7.9-3.2,5.6-3.8s-9.3,3.4-14.2,1.2-5.7-14-5.7-20-.2-9.6-.1-14.8-2.7-21.5-2.7-21.5c-1.4-9.5,1.8-14,1.8-14s1-21.7,1.6-26.1,3-3.5,7.1-4.1,3.6-2,5.4-4.5c-4.8,3.2-6.6,2.6-6.6,2.6l4.9-2.5Zm33.5,18.9c1.7-6.3,7.1-10.8,8.8-16.9.6-2,3.6-21.6,4.8-22.3s10.8.2,10.8.2c-4.3-3.5-10.7-3.3-10.7-3.3l-1.5-2.8-1.4.3c.1,5.2-1.4,12.5-2.3,18.6s-1.6,12.3-7.5,16.7c-8,5.2-8.7,14.7-8.7,14.7-.2,11.1-4.3,33.5-4.3,33.5s-8.8,41.4-6.8,46.2,9.6,6.6,14.3,7.5,14.2,0,16.4-.4a3.7,3.7,0,0,0,2.8-2.8c-.1.1-1.1,1-10.9.5-12.5-.7-11.9-14.1-12-17.1s5.5-30.9,5.5-30.9C216.3,166.7,217.5,133,218.1,130.8ZM243,64.1s-14.2-3.5-17-4-10.5-1.6-11.9-2.2-5.9-2.4-5.1-5.3,3.1-2.1,2.9-4.4-.4-2.6-3.1-3.4-8.1,9.3-3.9,12.7c2,2.2,30.7,7.5,30.7,7.5s.8.7-.5,4.7.2,4.1,0,5.3-1.7,1.8-1.5,3.6,4.7,2,4.9,3.2-2.3,1.6-2,1.9,1.1.6,3.2.2,2.4-3.3-1.2-5c0,0-4.7-2,0-2.8,2.4-.2,2.3-1.6,1.9-2s-2.8-.6-3.2-1-.8-1.7.8-3.8a21.2,21.2,0,0,0,.4-3.8l32,7.4,3.5.4.4-1.4Zm0,0s-14.2-3.5-17-4-10.5-1.6-11.9-2.2-5.9-2.4-5.1-5.3,3.1-2.1,2.9-4.4-.4-2.6-3.1-3.4-8.1,9.3-3.9,12.7c2,2.2,30.7,7.5,30.7,7.5s.8.7-.5,4.7.2,4.1,0,5.3-1.7,1.8-1.5,3.6,4.7,2,4.9,3.2-2.3,1.6-2,1.9,1.1.6,3.2.2,2.4-3.3-1.2-5c0,0-4.7-2,0-2.8,2.4-.2,2.3-1.6,1.9-2s-2.8-.6-3.2-1-.8-1.7.8-3.8a21.2,21.2,0,0,0,.4-3.8l32,7.4,3.5.4.4-1.4ZM231.8,88.5l-1.5-2.8-1.4.3c.1,5.2-1.4,12.5-2.3,18.6s-1.6,12.3-7.5,16.7c-8,5.2-8.7,14.7-8.7,14.7-.2,11.1-4.3,33.5-4.3,33.5s-8.8,41.4-6.8,46.2,9.6,6.6,14.3,7.5,14.2,0,16.4-.4a3.7,3.7,0,0,0,2.8-2.8c-.1.1-1.1,1-10.9.5-12.5-.7-11.9-14.1-12-17.1s5.5-30.9,5.5-30.9c.9-5.8,2.1-39.5,2.7-41.7,1.7-6.3,7.1-10.8,8.8-16.9.6-2,3.6-21.6,4.8-22.3s10.8.2,10.8.2C238.2,88.3,231.8,88.5,231.8,88.5Zm-47.2,23.4,9.9-4.5,13.4-5.4a8.2,8.2,0,0,0-.6-1.4c-7.1,2.4-20.9,8.4-21.6,8.8L177,114c-1.6.7-12.2,4.5-12.2,4.5s-19.3,7.4-20.2,7.6-4.3.1-5.1.3-12,5.2-13.5,5.4-4.8-3-4.8-3l-1.2,1,1.1,1.6c3,3.5,5.2,2.3,5.2,2.3s9.5-4.3,12.5-5.2,7.3-1.2,8.9-1.7l18.5-7.3s-1.3,27.7-1.4,28.4-2.2,4.4-3.9,8.6.3,15.8.7,18.6-.7,17.4-.7,21.4.9,17.8,1.1,19.4,1.3,4.6,6.1,6,11.8.6,14.2-.1c7.1-1.7,7.9-3.2,5.6-3.8s-9.3,3.4-14.2,1.2-5.7-14-5.7-20-.2-9.6-.1-14.8-2.7-21.5-2.7-21.5c-1.4-9.5,1.8-14,1.8-14s1-21.7,1.6-26.1,3-3.5,7.1-4.1,3.6-2,5.4-4.5c-4.8,3.2-6.6,2.6-6.6,2.6l4.9-2.5Zm72.6-59.8C236.6,47.6,213.3,41,211.3,41s-6.4-.8-10.3,3.5-2.3,14.1.5,16.4,13.5,4.9,27.7,7.7a79.5,79.5,0,0,1-.2,9.2c-2.5,2.1-3.3,2.7-4.2,6.2-1.8,7.1-3,26.9-5.7,30.5-.7,1-7.6,5.5-11.1,12.5s-5.8,30.7-8.8,50.2c-1.5,9.9-2.9,19.4-4,26.3.2-3.6.3-7.4.3-10.5,0-8.7.3-22.9-.7-30.5-1.2-11.7-3.7-9.9-6.7-18.4-.3-9.8-2.7-26.2-2.7-26.2s-.4-2.1,2.3-3.2l21.8-9.1s9.5-2.8,7.1-9.9-11.1-9-17.9-6.2l-38.6,16.1-16.6,6.7s-7.8,3.7-8.9,4.1-5,3.5-6.3,4-12.2,3-12.5,9.3c-.1,1.7,1.2,8,9.7,8.2,4.3.1,5.5-1.1,8.5-2.6s12.7-3.3,13.5-3.6,9.8-3.6,13-5.3c0,0-.8,20.2-.9,21.7s-4.1,3.9-4.5,9.5-.2,13.6.2,24.8,1,30.8,1,30.8-1.1,12.9,13.1,13.3,17.6-1.3,17.6-1.3,7.7-2,7.7-6.2c.8,1.9,1.9,3.9,3.7,4.6,3.9,1.5,19.4,6.3,28.5,5.2,11-1.4,14.2-2.5,16.2-23.8s7.9-55.5,8.6-60.1c2.1-12.8.9-17.4-6.1-26.1-3.8-8.9,3.9-30.3,1.8-36.1-1.6-4.3-3-1.7-1.6-9.1,4.5.9,20.2,4.8,20.2,4.8s14.6,4.3,16.4-8.3S277.1,56.5,257.2,52.1ZM192.4,215.3c-2.6,10.9-21.9,9.2-28.3,6.7s-3.9-18.7-5.1-28c-.2-1.4-.7-18.8-1-24.4a107.4,107.4,0,0,1,.1-11.4c.3-3.5,4-7.7,4.3-9.8s1-25.9,1-25.9l-8.5,3.1s-24.7,9.1-27.7,9.3a9.2,9.2,0,0,1-6.8-2.4,4,4,0,0,1-1.3-4.4c.1-1.5,13.8-7,18.4-9.7l17-7.7s42.2-17.4,47.8-19.4,14.5,5.7,11.2,8.6c-5.1,4.3-30.6,12.7-30.9,14.6-.6,4.8.8,17.4,2.9,32.4.7,4.6,5.4,5.2,5.7,15.8C191.4,171.5,193,201.2,192.4,215.3ZM271.6,76.5c-14.4-2.9-28.4-6.3-28.4-6.3l-.9,10a7.7,7.7,0,0,1,2.2,6.6s-6.7,29.1-.2,35.4,5.2,16.4,4.6,21.2-4.7,25.1-5.3,31.7-5.1,36.4-5.3,40.3-2.4,10.2-9,10.5a98.9,98.9,0,0,1-18.3-1.2c-4.6-.7-13-4-13.7-8.8S201,187,201,187s7.8-54.1,8-54.8a26.5,26.5,0,0,1,11.4-14.7c4.6-3,6-33.6,8.3-35.7a7.1,7.1,0,0,1,3.1-1.8l.4-13.9-24.4-5.2s-8.9-1.7-6.1-11.7c1.8-6.2,6.8-6.5,9.2-5.9s57.2,15.1,64.9,16.5C281.7,61.3,282.6,76.9,271.6,76.5ZM226,60.1c-2.9-.6-10.5-1.6-11.9-2.2s-5.9-2.4-5.1-5.3,3.1-2.1,2.9-4.4-.4-2.6-3.1-3.4-8.1,9.3-3.9,12.7c2,2.2,30.7,7.5,30.7,7.5s.8.7-.5,4.7.2,4.1,0,5.3-1.7,1.8-1.5,3.6,4.7,2,4.9,3.2-2.3,1.6-2,1.9,1.1.6,3.2.2,2.4-3.3-1.2-5c0,0-4.7-2,0-2.8,2.4-.2,2.3-1.6,1.9-2s-2.8-.6-3.2-1-.8-1.7.8-3.8a21.2,21.2,0,0,0,.4-3.8l32,7.4,3.5.4.4-1.4L243,64.1S228.8,60.6,226,60.1Zm5.8,28.4-1.5-2.8-1.4.3c.1,5.2-1.4,12.5-2.3,18.6s-1.6,12.3-7.5,16.7c-8,5.2-8.7,14.7-8.7,14.7-.2,11.1-4.3,33.5-4.3,33.5s-8.8,41.4-6.8,46.2,9.6,6.6,14.3,7.5,14.2,0,16.4-.4a3.7,3.7,0,0,0,2.8-2.8c-.1.1-1.1,1-10.9.5-12.5-.7-11.9-14.1-12-17.1s5.5-30.9,5.5-30.9c.9-5.8,2.1-39.5,2.7-41.7,1.7-6.3,7.1-10.8,8.8-16.9.6-2,3.6-21.6,4.8-22.3s10.8.2,10.8.2C238.2,88.3,231.8,88.5,231.8,88.5ZM187.9,218c-3.5,0-9.3,3.4-14.2,1.2s-5.7-14-5.7-20-.2-9.6-.1-14.8-2.7-21.5-2.7-21.5c-1.4-9.5,1.8-14,1.8-14s1-21.7,1.6-26.1,3-3.5,7.1-4.1,3.6-2,5.4-4.5c-4.8,3.2-6.6,2.6-6.6,2.6l4.9-2.5,5.2-2.4,9.9-4.5,13.4-5.4a8.2,8.2,0,0,0-.6-1.4c-7.1,2.4-20.9,8.4-21.6,8.8L177,114c-1.6.7-12.2,4.5-12.2,4.5s-19.3,7.4-20.2,7.6-4.3.1-5.1.3-12,5.2-13.5,5.4-4.8-3-4.8-3l-1.2,1,1.1,1.6c3,3.5,5.2,2.3,5.2,2.3s9.5-4.3,12.5-5.2,7.3-1.2,8.9-1.7l18.5-7.3s-1.3,27.7-1.4,28.4-2.2,4.4-3.9,8.6.3,15.8.7,18.6-.7,17.4-.7,21.4.9,17.8,1.1,19.4,1.3,4.6,6.1,6,11.8.6,14.2-.1C189.4,220.1,190.2,218.6,187.9,218Zm-3.3-106.1,9.9-4.5,13.4-5.4a8.2,8.2,0,0,0-.6-1.4c-7.1,2.4-20.9,8.4-21.6,8.8L177,114c-1.6.7-12.2,4.5-12.2,4.5s-19.3,7.4-20.2,7.6-4.3.1-5.1.3-12,5.2-13.5,5.4-4.8-3-4.8-3l-1.2,1,1.1,1.6c3,3.5,5.2,2.3,5.2,2.3s9.5-4.3,12.5-5.2,7.3-1.2,8.9-1.7l18.5-7.3s-1.3,27.7-1.4,28.4-2.2,4.4-3.9,8.6.3,15.8.7,18.6-.7,17.4-.7,21.4.9,17.8,1.1,19.4,1.3,4.6,6.1,6,11.8.6,14.2-.1c7.1-1.7,7.9-3.2,5.6-3.8s-9.3,3.4-14.2,1.2-5.7-14-5.7-20-.2-9.6-.1-14.8-2.7-21.5-2.7-21.5c-1.4-9.5,1.8-14,1.8-14s1-21.7,1.6-26.1,3-3.5,7.1-4.1,3.6-2,5.4-4.5c-4.8,3.2-6.6,2.6-6.6,2.6l4.9-2.5Zm33.5,18.9c1.7-6.3,7.1-10.8,8.8-16.9.6-2,3.6-21.6,4.8-22.3s10.8.2,10.8.2c-4.3-3.5-10.7-3.3-10.7-3.3l-1.5-2.8-1.4.3c.1,5.2-1.4,12.5-2.3,18.6s-1.6,12.3-7.5,16.7c-8,5.2-8.7,14.7-8.7,14.7-.2,11.1-4.3,33.5-4.3,33.5s-8.8,41.4-6.8,46.2,9.6,6.6,14.3,7.5,14.2,0,16.4-.4a3.7,3.7,0,0,0,2.8-2.8c-.1.1-1.1,1-10.9.5-12.5-.7-11.9-14.1-12-17.1s5.5-30.9,5.5-30.9C216.3,166.7,217.5,133,218.1,130.8ZM243,64.1s-14.2-3.5-17-4-10.5-1.6-11.9-2.2-5.9-2.4-5.1-5.3,3.1-2.1,2.9-4.4-.4-2.6-3.1-3.4-8.1,9.3-3.9,12.7c2,2.2,30.7,7.5,30.7,7.5s.8.7-.5,4.7.2,4.1,0,5.3-1.7,1.8-1.5,3.6,4.7,2,4.9,3.2-2.3,1.6-2,1.9,1.1.6,3.2.2,2.4-3.3-1.2-5c0,0-4.7-2,0-2.8,2.4-.2,2.3-1.6,1.9-2s-2.8-.6-3.2-1-.8-1.7.8-3.8a21.2,21.2,0,0,0,.4-3.8l32,7.4,3.5.4.4-1.4Zm0,0s-14.2-3.5-17-4-10.5-1.6-11.9-2.2-5.9-2.4-5.1-5.3,3.1-2.1,2.9-4.4-.4-2.6-3.1-3.4-8.1,9.3-3.9,12.7c2,2.2,30.7,7.5,30.7,7.5s.8.7-.5,4.7.2,4.1,0,5.3-1.7,1.8-1.5,3.6,4.7,2,4.9,3.2-2.3,1.6-2,1.9,1.1.6,3.2.2,2.4-3.3-1.2-5c0,0-4.7-2,0-2.8,2.4-.2,2.3-1.6,1.9-2s-2.8-.6-3.2-1-.8-1.7.8-3.8a21.2,21.2,0,0,0,.4-3.8l32,7.4,3.5.4.4-1.4Zm-24.9,66.7c1.7-6.3,7.1-10.8,8.8-16.9.6-2,3.6-21.6,4.8-22.3s10.8.2,10.8.2c-4.3-3.5-10.7-3.3-10.7-3.3l-1.5-2.8-1.4.3c.1,5.2-1.4,12.5-2.3,18.6s-1.6,12.3-7.5,16.7c-8,5.2-8.7,14.7-8.7,14.7-.2,11.1-4.3,33.5-4.3,33.5s-8.8,41.4-6.8,46.2,9.6,6.6,14.3,7.5,14.2,0,16.4-.4a3.7,3.7,0,0,0,2.8-2.8c-.1.1-1.1,1-10.9.5-12.5-.7-11.9-14.1-12-17.1s5.5-30.9,5.5-30.9C216.3,166.7,217.5,133,218.1,130.8Zm-33.5-18.9,9.9-4.5,13.4-5.4a8.2,8.2,0,0,0-.6-1.4c-7.1,2.4-20.9,8.4-21.6,8.8L177,114c-1.6.7-12.2,4.5-12.2,4.5s-19.3,7.4-20.2,7.6-4.3.1-5.1.3-12,5.2-13.5,5.4-4.8-3-4.8-3l-1.2,1,1.1,1.6c3,3.5,5.2,2.3,5.2,2.3s9.5-4.3,12.5-5.2,7.3-1.2,8.9-1.7l18.5-7.3s-1.3,27.7-1.4,28.4-2.2,4.4-3.9,8.6.3,15.8.7,18.6-.7,17.4-.7,21.4.9,17.8,1.1,19.4,1.3,4.6,6.1,6,11.8.6,14.2-.1c7.1-1.7,7.9-3.2,5.6-3.8s-9.3,3.4-14.2,1.2-5.7-14-5.7-20-.2-9.6-.1-14.8-2.7-21.5-2.7-21.5c-1.4-9.5,1.8-14,1.8-14s1-21.7,1.6-26.1,3-3.5,7.1-4.1,3.6-2,5.4-4.5c-4.8,3.2-6.6,2.6-6.6,2.6l4.9-2.5Zm0,0,9.9-4.5,13.4-5.4a8.2,8.2,0,0,0-.6-1.4c-7.1,2.4-20.9,8.4-21.6,8.8L177,114c-1.6.7-12.2,4.5-12.2,4.5s-19.3,7.4-20.2,7.6-4.3.1-5.1.3-12,5.2-13.5,5.4-4.8-3-4.8-3l-1.2,1,1.1,1.6c3,3.5,5.2,2.3,5.2,2.3s9.5-4.3,12.5-5.2,7.3-1.2,8.9-1.7l18.5-7.3s-1.3,27.7-1.4,28.4-2.2,4.4-3.9,8.6.3,15.8.7,18.6-.7,17.4-.7,21.4.9,17.8,1.1,19.4,1.3,4.6,6.1,6,11.8.6,14.2-.1c7.1-1.7,7.9-3.2,5.6-3.8s-9.3,3.4-14.2,1.2-5.7-14-5.7-20-.2-9.6-.1-14.8-2.7-21.5-2.7-21.5c-1.4-9.5,1.8-14,1.8-14s1-21.7,1.6-26.1,3-3.5,7.1-4.1,3.6-2,5.4-4.5c-4.8,3.2-6.6,2.6-6.6,2.6l4.9-2.5Zm33.5,18.9c1.7-6.3,7.1-10.8,8.8-16.9.6-2,3.6-21.6,4.8-22.3s10.8.2,10.8.2c-4.3-3.5-10.7-3.3-10.7-3.3l-1.5-2.8-1.4.3c.1,5.2-1.4,12.5-2.3,18.6s-1.6,12.3-7.5,16.7c-8,5.2-8.7,14.7-8.7,14.7-.2,11.1-4.3,33.5-4.3,33.5s-8.8,41.4-6.8,46.2,9.6,6.6,14.3,7.5,14.2,0,16.4-.4a3.7,3.7,0,0,0,2.8-2.8c-.1.1-1.1,1-10.9.5-12.5-.7-11.9-14.1-12-17.1s5.5-30.9,5.5-30.9C216.3,166.7,217.5,133,218.1,130.8ZM243,64.1s-14.2-3.5-17-4-10.5-1.6-11.9-2.2-5.9-2.4-5.1-5.3,3.1-2.1,2.9-4.4-.4-2.6-3.1-3.4-8.1,9.3-3.9,12.7c2,2.2,30.7,7.5,30.7,7.5s.8.7-.5,4.7.2,4.1,0,5.3-1.7,1.8-1.5,3.6,4.7,2,4.9,3.2-2.3,1.6-2,1.9,1.1.6,3.2.2,2.4-3.3-1.2-5c0,0-4.7-2,0-2.8,2.4-.2,2.3-1.6,1.9-2s-2.8-.6-3.2-1-.8-1.7.8-3.8a21.2,21.2,0,0,0,.4-3.8l32,7.4,3.5.4.4-1.4Zm0,0s-14.2-3.5-17-4-10.5-1.6-11.9-2.2-5.9-2.4-5.1-5.3,3.1-2.1,2.9-4.4-.4-2.6-3.1-3.4-8.1,9.3-3.9,12.7c2,2.2,30.7,7.5,30.7,7.5s.8.7-.5,4.7.2,4.1,0,5.3-1.7,1.8-1.5,3.6,4.7,2,4.9,3.2-2.3,1.6-2,1.9,1.1.6,3.2.2,2.4-3.3-1.2-5c0,0-4.7-2,0-2.8,2.4-.2,2.3-1.6,1.9-2s-2.8-.6-3.2-1-.8-1.7.8-3.8a21.2,21.2,0,0,0,.4-3.8l32,7.4,3.5.4.4-1.4Zm-24.9,66.7c1.7-6.3,7.1-10.8,8.8-16.9.6-2,3.6-21.6,4.8-22.3s10.8.2,10.8.2c-4.3-3.5-10.7-3.3-10.7-3.3l-1.5-2.8-1.4.3c.1,5.2-1.4,12.5-2.3,18.6s-1.6,12.3-7.5,16.7c-8,5.2-8.7,14.7-8.7,14.7-.2,11.1-4.3,33.5-4.3,33.5s-8.8,41.4-6.8,46.2,9.6,6.6,14.3,7.5,14.2,0,16.4-.4a3.7,3.7,0,0,0,2.8-2.8c-.1.1-1.1,1-10.9.5-12.5-.7-11.9-14.1-12-17.1s5.5-30.9,5.5-30.9C216.3,166.7,217.5,133,218.1,130.8Zm-33.5-18.9,9.9-4.5,13.4-5.4a8.2,8.2,0,0,0-.6-1.4c-7.1,2.4-20.9,8.4-21.6,8.8L177,114c-1.6.7-12.2,4.5-12.2,4.5s-19.3,7.4-20.2,7.6-4.3.1-5.1.3-12,5.2-13.5,5.4-4.8-3-4.8-3l-1.2,1,1.1,1.6c3,3.5,5.2,2.3,5.2,2.3s9.5-4.3,12.5-5.2,7.3-1.2,8.9-1.7l18.5-7.3s-1.3,27.7-1.4,28.4-2.2,4.4-3.9,8.6.3,15.8.7,18.6-.7,17.4-.7,21.4.9,17.8,1.1,19.4,1.3,4.6,6.1,6,11.8.6,14.2-.1c7.1-1.7,7.9-3.2,5.6-3.8s-9.3,3.4-14.2,1.2-5.7-14-5.7-20-.2-9.6-.1-14.8-2.7-21.5-2.7-21.5c-1.4-9.5,1.8-14,1.8-14s1-21.7,1.6-26.1,3-3.5,7.1-4.1,3.6-2,5.4-4.5c-4.8,3.2-6.6,2.6-6.6,2.6l4.9-2.5Zm0,0,9.9-4.5,13.4-5.4a8.2,8.2,0,0,0-.6-1.4c-7.1,2.4-20.9,8.4-21.6,8.8L177,114c-1.6.7-12.2,4.5-12.2,4.5s-19.3,7.4-20.2,7.6-4.3.1-5.1.3-12,5.2-13.5,5.4-4.8-3-4.8-3l-1.2,1,1.1,1.6c3,3.5,5.2,2.3,5.2,2.3s9.5-4.3,12.5-5.2,7.3-1.2,8.9-1.7l18.5-7.3s-1.3,27.7-1.4,28.4-2.2,4.4-3.9,8.6.3,15.8.7,18.6-.7,17.4-.7,21.4.9,17.8,1.1,19.4,1.3,4.6,6.1,6,11.8.6,14.2-.1c7.1-1.7,7.9-3.2,5.6-3.8s-9.3,3.4-14.2,1.2-5.7-14-5.7-20-.2-9.6-.1-14.8-2.7-21.5-2.7-21.5c-1.4-9.5,1.8-14,1.8-14s1-21.7,1.6-26.1,3-3.5,7.1-4.1,3.6-2,5.4-4.5c-4.8,3.2-6.6,2.6-6.6,2.6l4.9-2.5Zm33.5,18.9c1.7-6.3,7.1-10.8,8.8-16.9.6-2,3.6-21.6,4.8-22.3s10.8.2,10.8.2c-4.3-3.5-10.7-3.3-10.7-3.3l-1.5-2.8-1.4.3c.1,5.2-1.4,12.5-2.3,18.6s-1.6,12.3-7.5,16.7c-8,5.2-8.7,14.7-8.7,14.7-.2,11.1-4.3,33.5-4.3,33.5s-8.8,41.4-6.8,46.2,9.6,6.6,14.3,7.5,14.2,0,16.4-.4a3.7,3.7,0,0,0,2.8-2.8c-.1.1-1.1,1-10.9.5-12.5-.7-11.9-14.1-12-17.1s5.5-30.9,5.5-30.9C216.3,166.7,217.5,133,218.1,130.8ZM243,64.1s-14.2-3.5-17-4-10.5-1.6-11.9-2.2-5.9-2.4-5.1-5.3,3.1-2.1,2.9-4.4-.4-2.6-3.1-3.4-8.1,9.3-3.9,12.7c2,2.2,30.7,7.5,30.7,7.5s.8.7-.5,4.7.2,4.1,0,5.3-1.7,1.8-1.5,3.6,4.7,2,4.9,3.2-2.3,1.6-2,1.9,1.1.6,3.2.2,2.4-3.3-1.2-5c0,0-4.7-2,0-2.8,2.4-.2,2.3-1.6,1.9-2s-2.8-.6-3.2-1-.8-1.7.8-3.8a21.2,21.2,0,0,0,.4-3.8l32,7.4,3.5.4.4-1.4Zm0,0s-14.2-3.5-17-4-10.5-1.6-11.9-2.2-5.9-2.4-5.1-5.3,3.1-2.1,2.9-4.4-.4-2.6-3.1-3.4-8.1,9.3-3.9,12.7c2,2.2,30.7,7.5,30.7,7.5s.8.7-.5,4.7.2,4.1,0,5.3-1.7,1.8-1.5,3.6,4.7,2,4.9,3.2-2.3,1.6-2,1.9,1.1.6,3.2.2,2.4-3.3-1.2-5c0,0-4.7-2,0-2.8,2.4-.2,2.3-1.6,1.9-2s-2.8-.6-3.2-1-.8-1.7.8-3.8a21.2,21.2,0,0,0,.4-3.8l32,7.4,3.5.4.4-1.4Zm-24.9,66.7c1.7-6.3,7.1-10.8,8.8-16.9.6-2,3.6-21.6,4.8-22.3s10.8.2,10.8.2c-4.3-3.5-10.7-3.3-10.7-3.3l-1.5-2.8-1.4.3c.1,5.2-1.4,12.5-2.3,18.6s-1.6,12.3-7.5,16.7c-8,5.2-8.7,14.7-8.7,14.7-.2,11.1-4.3,33.5-4.3,33.5s-8.8,41.4-6.8,46.2,9.6,6.6,14.3,7.5,14.2,0,16.4-.4a3.7,3.7,0,0,0,2.8-2.8c-.1.1-1.1,1-10.9.5-12.5-.7-11.9-14.1-12-17.1s5.5-30.9,5.5-30.9C216.3,166.7,217.5,133,218.1,130.8Zm-33.5-18.9,9.9-4.5,13.4-5.4a8.2,8.2,0,0,0-.6-1.4c-7.1,2.4-20.9,8.4-21.6,8.8L177,114c-1.6.7-12.2,4.5-12.2,4.5s-19.3,7.4-20.2,7.6-4.3.1-5.1.3-12,5.2-13.5,5.4-4.8-3-4.8-3l-1.2,1,1.1,1.6c3,3.5,5.2,2.3,5.2,2.3s9.5-4.3,12.5-5.2,7.3-1.2,8.9-1.7l18.5-7.3s-1.3,27.7-1.4,28.4-2.2,4.4-3.9,8.6.3,15.8.7,18.6-.7,17.4-.7,21.4.9,17.8,1.1,19.4,1.3,4.6,6.1,6,11.8.6,14.2-.1c7.1-1.7,7.9-3.2,5.6-3.8s-9.3,3.4-14.2,1.2-5.7-14-5.7-20-.2-9.6-.1-14.8-2.7-21.5-2.7-21.5c-1.4-9.5,1.8-14,1.8-14s1-21.7,1.6-26.1,3-3.5,7.1-4.1,3.6-2,5.4-4.5c-4.8,3.2-6.6,2.6-6.6,2.6l4.9-2.5Zm0,0,9.9-4.5,13.4-5.4a8.2,8.2,0,0,0-.6-1.4c-7.1,2.4-20.9,8.4-21.6,8.8L177,114c-1.6.7-12.2,4.5-12.2,4.5s-19.3,7.4-20.2,7.6-4.3.1-5.1.3-12,5.2-13.5,5.4-4.8-3-4.8-3l-1.2,1,1.1,1.6c3,3.5,5.2,2.3,5.2,2.3s9.5-4.3,12.5-5.2,7.3-1.2,8.9-1.7l18.5-7.3s-1.3,27.7-1.4,28.4-2.2,4.4-3.9,8.6.3,15.8.7,18.6-.7,17.4-.7,21.4.9,17.8,1.1,19.4,1.3,4.6,6.1,6,11.8.6,14.2-.1c7.1-1.7,7.9-3.2,5.6-3.8s-9.3,3.4-14.2,1.2-5.7-14-5.7-20-.2-9.6-.1-14.8-2.7-21.5-2.7-21.5c-1.4-9.5,1.8-14,1.8-14s1-21.7,1.6-26.1,3-3.5,7.1-4.1,3.6-2,5.4-4.5c-4.8,3.2-6.6,2.6-6.6,2.6l4.9-2.5Zm33.5,18.9c1.7-6.3,7.1-10.8,8.8-16.9.6-2,3.6-21.6,4.8-22.3s10.8.2,10.8.2c-4.3-3.5-10.7-3.3-10.7-3.3l-1.5-2.8-1.4.3c.1,5.2-1.4,12.5-2.3,18.6s-1.6,12.3-7.5,16.7c-8,5.2-8.7,14.7-8.7,14.7-.2,11.1-4.3,33.5-4.3,33.5s-8.8,41.4-6.8,46.2,9.6,6.6,14.3,7.5,14.2,0,16.4-.4a3.7,3.7,0,0,0,2.8-2.8c-.1.1-1.1,1-10.9.5-12.5-.7-11.9-14.1-12-17.1s5.5-30.9,5.5-30.9C216.3,166.7,217.5,133,218.1,130.8ZM243,64.1s-14.2-3.5-17-4-10.5-1.6-11.9-2.2-5.9-2.4-5.1-5.3,3.1-2.1,2.9-4.4-.4-2.6-3.1-3.4-8.1,9.3-3.9,12.7c2,2.2,30.7,7.5,30.7,7.5s.8.7-.5,4.7.2,4.1,0,5.3-1.7,1.8-1.5,3.6,4.7,2,4.9,3.2-2.3,1.6-2,1.9,1.1.6,3.2.2,2.4-3.3-1.2-5c0,0-4.7-2,0-2.8,2.4-.2,2.3-1.6,1.9-2s-2.8-.6-3.2-1-.8-1.7.8-3.8a21.2,21.2,0,0,0,.4-3.8l32,7.4,3.5.4.4-1.4Zm0,0s-14.2-3.5-17-4-10.5-1.6-11.9-2.2-5.9-2.4-5.1-5.3,3.1-2.1,2.9-4.4-.4-2.6-3.1-3.4-8.1,9.3-3.9,12.7c2,2.2,30.7,7.5,30.7,7.5s.8.7-.5,4.7.2,4.1,0,5.3-1.7,1.8-1.5,3.6,4.7,2,4.9,3.2-2.3,1.6-2,1.9,1.1.6,3.2.2,2.4-3.3-1.2-5c0,0-4.7-2,0-2.8,2.4-.2,2.3-1.6,1.9-2s-2.8-.6-3.2-1-.8-1.7.8-3.8a21.2,21.2,0,0,0,.4-3.8l32,7.4,3.5.4.4-1.4Zm-24.9,66.7c1.7-6.3,7.1-10.8,8.8-16.9.6-2,3.6-21.6,4.8-22.3s10.8.2,10.8.2c-4.3-3.5-10.7-3.3-10.7-3.3l-1.5-2.8-1.4.3c.1,5.2-1.4,12.5-2.3,18.6s-1.6,12.3-7.5,16.7c-8,5.2-8.7,14.7-8.7,14.7-.2,11.1-4.3,33.5-4.3,33.5s-8.8,41.4-6.8,46.2,9.6,6.6,14.3,7.5,14.2,0,16.4-.4a3.7,3.7,0,0,0,2.8-2.8c-.1.1-1.1,1-10.9.5-12.5-.7-11.9-14.1-12-17.1s5.5-30.9,5.5-30.9C216.3,166.7,217.5,133,218.1,130.8Zm-33.5-18.9,9.9-4.5,13.4-5.4a8.2,8.2,0,0,0-.6-1.4c-7.1,2.4-20.9,8.4-21.6,8.8L177,114c-1.6.7-12.2,4.5-12.2,4.5s-19.3,7.4-20.2,7.6-4.3.1-5.1.3-12,5.2-13.5,5.4-4.8-3-4.8-3l-1.2,1,1.1,1.6c3,3.5,5.2,2.3,5.2,2.3s9.5-4.3,12.5-5.2,7.3-1.2,8.9-1.7l18.5-7.3s-1.3,27.7-1.4,28.4-2.2,4.4-3.9,8.6.3,15.8.7,18.6-.7,17.4-.7,21.4.9,17.8,1.1,19.4,1.3,4.6,6.1,6,11.8.6,14.2-.1c7.1-1.7,7.9-3.2,5.6-3.8s-9.3,3.4-14.2,1.2-5.7-14-5.7-20-.2-9.6-.1-14.8-2.7-21.5-2.7-21.5c-1.4-9.5,1.8-14,1.8-14s1-21.7,1.6-26.1,3-3.5,7.1-4.1,3.6-2,5.4-4.5c-4.8,3.2-6.6,2.6-6.6,2.6l4.9-2.5Zm0,0,9.9-4.5,13.4-5.4a8.2,8.2,0,0,0-.6-1.4c-7.1,2.4-20.9,8.4-21.6,8.8L177,114c-1.6.7-12.2,4.5-12.2,4.5s-19.3,7.4-20.2,7.6-4.3.1-5.1.3-12,5.2-13.5,5.4-4.8-3-4.8-3l-1.2,1,1.1,1.6c3,3.5,5.2,2.3,5.2,2.3s9.5-4.3,12.5-5.2,7.3-1.2,8.9-1.7l18.5-7.3s-1.3,27.7-1.4,28.4-2.2,4.4-3.9,8.6.3,15.8.7,18.6-.7,17.4-.7,21.4.9,17.8,1.1,19.4,1.3,4.6,6.1,6,11.8.6,14.2-.1c7.1-1.7,7.9-3.2,5.6-3.8s-9.3,3.4-14.2,1.2-5.7-14-5.7-20-.2-9.6-.1-14.8-2.7-21.5-2.7-21.5c-1.4-9.5,1.8-14,1.8-14s1-21.7,1.6-26.1,3-3.5,7.1-4.1,3.6-2,5.4-4.5c-4.8,3.2-6.6,2.6-6.6,2.6l4.9-2.5Zm33.5,18.9c1.7-6.3,7.1-10.8,8.8-16.9.6-2,3.6-21.6,4.8-22.3s10.8.2,10.8.2c-4.3-3.5-10.7-3.3-10.7-3.3l-1.5-2.8-1.4.3c.1,5.2-1.4,12.5-2.3,18.6s-1.6,12.3-7.5,16.7c-8,5.2-8.7,14.7-8.7,14.7-.2,11.1-4.3,33.5-4.3,33.5s-8.8,41.4-6.8,46.2,9.6,6.6,14.3,7.5,14.2,0,16.4-.4a3.7,3.7,0,0,0,2.8-2.8c-.1.1-1.1,1-10.9.5-12.5-.7-11.9-14.1-12-17.1s5.5-30.9,5.5-30.9C216.3,166.7,217.5,133,218.1,130.8ZM243,64.1s-14.2-3.5-17-4-10.5-1.6-11.9-2.2-5.9-2.4-5.1-5.3,3.1-2.1,2.9-4.4-.4-2.6-3.1-3.4-8.1,9.3-3.9,12.7c2,2.2,30.7,7.5,30.7,7.5s.8.7-.5,4.7.2,4.1,0,5.3-1.7,1.8-1.5,3.6,4.7,2,4.9,3.2-2.3,1.6-2,1.9,1.1.6,3.2.2,2.4-3.3-1.2-5c0,0-4.7-2,0-2.8,2.4-.2,2.3-1.6,1.9-2s-2.8-.6-3.2-1-.8-1.7.8-3.8a21.2,21.2,0,0,0,.4-3.8l32,7.4,3.5.4.4-1.4Zm0,0s-14.2-3.5-17-4-10.5-1.6-11.9-2.2-5.9-2.4-5.1-5.3,3.1-2.1,2.9-4.4-.4-2.6-3.1-3.4-8.1,9.3-3.9,12.7c2,2.2,30.7,7.5,30.7,7.5s.8.7-.5,4.7.2,4.1,0,5.3-1.7,1.8-1.5,3.6,4.7,2,4.9,3.2-2.3,1.6-2,1.9,1.1.6,3.2.2,2.4-3.3-1.2-5c0,0-4.7-2,0-2.8,2.4-.2,2.3-1.6,1.9-2s-2.8-.6-3.2-1-.8-1.7.8-3.8a21.2,21.2,0,0,0,.4-3.8l32,7.4,3.5.4.4-1.4Zm-24.9,66.7c1.7-6.3,7.1-10.8,8.8-16.9.6-2,3.6-21.6,4.8-22.3s10.8.2,10.8.2c-4.3-3.5-10.7-3.3-10.7-3.3l-1.5-2.8-1.4.3c.1,5.2-1.4,12.5-2.3,18.6s-1.6,12.3-7.5,16.7c-8,5.2-8.7,14.7-8.7,14.7-.2,11.1-4.3,33.5-4.3,33.5s-8.8,41.4-6.8,46.2,9.6,6.6,14.3,7.5,14.2,0,16.4-.4a3.7,3.7,0,0,0,2.8-2.8c-.1.1-1.1,1-10.9.5-12.5-.7-11.9-14.1-12-17.1s5.5-30.9,5.5-30.9C216.3,166.7,217.5,133,218.1,130.8Zm-33.5-18.9,9.9-4.5,13.4-5.4a8.2,8.2,0,0,0-.6-1.4c-7.1,2.4-20.9,8.4-21.6,8.8L177,114c-1.6.7-12.2,4.5-12.2,4.5s-19.3,7.4-20.2,7.6-4.3.1-5.1.3-12,5.2-13.5,5.4-4.8-3-4.8-3l-1.2,1,1.1,1.6c3,3.5,5.2,2.3,5.2,2.3s9.5-4.3,12.5-5.2,7.3-1.2,8.9-1.7l18.5-7.3s-1.3,27.7-1.4,28.4-2.2,4.4-3.9,8.6.3,15.8.7,18.6-.7,17.4-.7,21.4.9,17.8,1.1,19.4,1.3,4.6,6.1,6,11.8.6,14.2-.1c7.1-1.7,7.9-3.2,5.6-3.8s-9.3,3.4-14.2,1.2-5.7-14-5.7-20-.2-9.6-.1-14.8-2.7-21.5-2.7-21.5c-1.4-9.5,1.8-14,1.8-14s1-21.7,1.6-26.1,3-3.5,7.1-4.1,3.6-2,5.4-4.5c-4.8,3.2-6.6,2.6-6.6,2.6l4.9-2.5Zm0,0,9.9-4.5,13.4-5.4a8.2,8.2,0,0,0-.6-1.4c-7.1,2.4-20.9,8.4-21.6,8.8L177,114c-1.6.7-12.2,4.5-12.2,4.5s-19.3,7.4-20.2,7.6-4.3.1-5.1.3-12,5.2-13.5,5.4-4.8-3-4.8-3l-1.2,1,1.1,1.6c3,3.5,5.2,2.3,5.2,2.3s9.5-4.3,12.5-5.2,7.3-1.2,8.9-1.7l18.5-7.3s-1.3,27.7-1.4,28.4-2.2,4.4-3.9,8.6.3,15.8.7,18.6-.7,17.4-.7,21.4.9,17.8,1.1,19.4,1.3,4.6,6.1,6,11.8.6,14.2-.1c7.1-1.7,7.9-3.2,5.6-3.8s-9.3,3.4-14.2,1.2-5.7-14-5.7-20-.2-9.6-.1-14.8-2.7-21.5-2.7-21.5c-1.4-9.5,1.8-14,1.8-14s1-21.7,1.6-26.1,3-3.5,7.1-4.1,3.6-2,5.4-4.5c-4.8,3.2-6.6,2.6-6.6,2.6l4.9-2.5Zm33.5,18.9c1.7-6.3,7.1-10.8,8.8-16.9.6-2,3.6-21.6,4.8-22.3s10.8.2,10.8.2c-4.3-3.5-10.7-3.3-10.7-3.3l-1.5-2.8-1.4.3c.1,5.2-1.4,12.5-2.3,18.6s-1.6,12.3-7.5,16.7c-8,5.2-8.7,14.7-8.7,14.7-.2,11.1-4.3,33.5-4.3,33.5s-8.8,41.4-6.8,46.2,9.6,6.6,14.3,7.5,14.2,0,16.4-.4a3.7,3.7,0,0,0,2.8-2.8c-.1.1-1.1,1-10.9.5-12.5-.7-11.9-14.1-12-17.1s5.5-30.9,5.5-30.9C216.3,166.7,217.5,133,218.1,130.8ZM243,64.1s-14.2-3.5-17-4-10.5-1.6-11.9-2.2-5.9-2.4-5.1-5.3,3.1-2.1,2.9-4.4-.4-2.6-3.1-3.4-8.1,9.3-3.9,12.7c2,2.2,30.7,7.5,30.7,7.5s.8.7-.5,4.7.2,4.1,0,5.3-1.7,1.8-1.5,3.6,4.7,2,4.9,3.2-2.3,1.6-2,1.9,1.1.6,3.2.2,2.4-3.3-1.2-5c0,0-4.7-2,0-2.8,2.4-.2,2.3-1.6,1.9-2s-2.8-.6-3.2-1-.8-1.7.8-3.8a21.2,21.2,0,0,0,.4-3.8l32,7.4,3.5.4.4-1.4Zm0,0s-14.2-3.5-17-4-10.5-1.6-11.9-2.2-5.9-2.4-5.1-5.3,3.1-2.1,2.9-4.4-.4-2.6-3.1-3.4-8.1,9.3-3.9,12.7c2,2.2,30.7,7.5,30.7,7.5s.8.7-.5,4.7.2,4.1,0,5.3-1.7,1.8-1.5,3.6,4.7,2,4.9,3.2-2.3,1.6-2,1.9,1.1.6,3.2.2,2.4-3.3-1.2-5c0,0-4.7-2,0-2.8,2.4-.2,2.3-1.6,1.9-2s-2.8-.6-3.2-1-.8-1.7.8-3.8a21.2,21.2,0,0,0,.4-3.8l32,7.4,3.5.4.4-1.4Zm-24.9,66.7c1.7-6.3,7.1-10.8,8.8-16.9.6-2,3.6-21.6,4.8-22.3s10.8.2,10.8.2c-4.3-3.5-10.7-3.3-10.7-3.3l-1.5-2.8-1.4.3c.1,5.2-1.4,12.5-2.3,18.6s-1.6,12.3-7.5,16.7c-8,5.2-8.7,14.7-8.7,14.7-.2,11.1-4.3,33.5-4.3,33.5s-8.8,41.4-6.8,46.2,9.6,6.6,14.3,7.5,14.2,0,16.4-.4a3.7,3.7,0,0,0,2.8-2.8c-.1.1-1.1,1-10.9.5-12.5-.7-11.9-14.1-12-17.1s5.5-30.9,5.5-30.9C216.3,166.7,217.5,133,218.1,130.8Zm-33.5-18.9,9.9-4.5,13.4-5.4a8.2,8.2,0,0,0-.6-1.4c-7.1,2.4-20.9,8.4-21.6,8.8L177,114c-1.6.7-12.2,4.5-12.2,4.5s-19.3,7.4-20.2,7.6-4.3.1-5.1.3-12,5.2-13.5,5.4-4.8-3-4.8-3l-1.2,1,1.1,1.6c3,3.5,5.2,2.3,5.2,2.3s9.5-4.3,12.5-5.2,7.3-1.2,8.9-1.7l18.5-7.3s-1.3,27.7-1.4,28.4-2.2,4.4-3.9,8.6.3,15.8.7,18.6-.7,17.4-.7,21.4.9,17.8,1.1,19.4,1.3,4.6,6.1,6,11.8.6,14.2-.1c7.1-1.7,7.9-3.2,5.6-3.8s-9.3,3.4-14.2,1.2-5.7-14-5.7-20-.2-9.6-.1-14.8-2.7-21.5-2.7-21.5c-1.4-9.5,1.8-14,1.8-14s1-21.7,1.6-26.1,3-3.5,7.1-4.1,3.6-2,5.4-4.5c-4.8,3.2-6.6,2.6-6.6,2.6l4.9-2.5Zm0,0,9.9-4.5,13.4-5.4a8.2,8.2,0,0,0-.6-1.4c-7.1,2.4-20.9,8.4-21.6,8.8L177,114c-1.6.7-12.2,4.5-12.2,4.5s-19.3,7.4-20.2,7.6-4.3.1-5.1.3-12,5.2-13.5,5.4-4.8-3-4.8-3l-1.2,1,1.1,1.6c3,3.5,5.2,2.3,5.2,2.3s9.5-4.3,12.5-5.2,7.3-1.2,8.9-1.7l18.5-7.3s-1.3,27.7-1.4,28.4-2.2,4.4-3.9,8.6.3,15.8.7,18.6-.7,17.4-.7,21.4.9,17.8,1.1,19.4,1.3,4.6,6.1,6,11.8.6,14.2-.1c7.1-1.7,7.9-3.2,5.6-3.8s-9.3,3.4-14.2,1.2-5.7-14-5.7-20-.2-9.6-.1-14.8-2.7-21.5-2.7-21.5c-1.4-9.5,1.8-14,1.8-14s1-21.7,1.6-26.1,3-3.5,7.1-4.1,3.6-2,5.4-4.5c-4.8,3.2-6.6,2.6-6.6,2.6l4.9-2.5Zm33.5,18.9c1.7-6.3,7.1-10.8,8.8-16.9.6-2,3.6-21.6,4.8-22.3s10.8.2,10.8.2c-4.3-3.5-10.7-3.3-10.7-3.3l-1.5-2.8-1.4.3c.1,5.2-1.4,12.5-2.3,18.6s-1.6,12.3-7.5,16.7c-8,5.2-8.7,14.7-8.7,14.7-.2,11.1-4.3,33.5-4.3,33.5s-8.8,41.4-6.8,46.2,9.6,6.6,14.3,7.5,14.2,0,16.4-.4a3.7,3.7,0,0,0,2.8-2.8c-.1.1-1.1,1-10.9.5-12.5-.7-11.9-14.1-12-17.1s5.5-30.9,5.5-30.9C216.3,166.7,217.5,133,218.1,130.8ZM243,64.1s-14.2-3.5-17-4-10.5-1.6-11.9-2.2-5.9-2.4-5.1-5.3,3.1-2.1,2.9-4.4-.4-2.6-3.1-3.4-8.1,9.3-3.9,12.7c2,2.2,30.7,7.5,30.7,7.5s.8.7-.5,4.7.2,4.1,0,5.3-1.7,1.8-1.5,3.6,4.7,2,4.9,3.2-2.3,1.6-2,1.9,1.1.6,3.2.2,2.4-3.3-1.2-5c0,0-4.7-2,0-2.8,2.4-.2,2.3-1.6,1.9-2s-2.8-.6-3.2-1-.8-1.7.8-3.8a21.2,21.2,0,0,0,.4-3.8l32,7.4,3.5.4.4-1.4Zm0,0s-14.2-3.5-17-4-10.5-1.6-11.9-2.2-5.9-2.4-5.1-5.3,3.1-2.1,2.9-4.4-.4-2.6-3.1-3.4-8.1,9.3-3.9,12.7c2,2.2,30.7,7.5,30.7,7.5s.8.7-.5,4.7.2,4.1,0,5.3-1.7,1.8-1.5,3.6,4.7,2,4.9,3.2-2.3,1.6-2,1.9,1.1.6,3.2.2,2.4-3.3-1.2-5c0,0-4.7-2,0-2.8,2.4-.2,2.3-1.6,1.9-2s-2.8-.6-3.2-1-.8-1.7.8-3.8a21.2,21.2,0,0,0,.4-3.8l32,7.4,3.5.4.4-1.4Zm-24.9,66.7c1.7-6.3,7.1-10.8,8.8-16.9.6-2,3.6-21.6,4.8-22.3s10.8.2,10.8.2c-4.3-3.5-10.7-3.3-10.7-3.3l-1.5-2.8-1.4.3c.1,5.2-1.4,12.5-2.3,18.6s-1.6,12.3-7.5,16.7c-8,5.2-8.7,14.7-8.7,14.7-.2,11.1-4.3,33.5-4.3,33.5s-8.8,41.4-6.8,46.2,9.6,6.6,14.3,7.5,14.2,0,16.4-.4a3.7,3.7,0,0,0,2.8-2.8c-.1.1-1.1,1-10.9.5-12.5-.7-11.9-14.1-12-17.1s5.5-30.9,5.5-30.9C216.3,166.7,217.5,133,218.1,130.8Zm-33.5-18.9,9.9-4.5,13.4-5.4a8.2,8.2,0,0,0-.6-1.4c-7.1,2.4-20.9,8.4-21.6,8.8L177,114c-1.6.7-12.2,4.5-12.2,4.5s-19.3,7.4-20.2,7.6-4.3.1-5.1.3-12,5.2-13.5,5.4-4.8-3-4.8-3l-1.2,1,1.1,1.6c3,3.5,5.2,2.3,5.2,2.3s9.5-4.3,12.5-5.2,7.3-1.2,8.9-1.7l18.5-7.3s-1.3,27.7-1.4,28.4-2.2,4.4-3.9,8.6.3,15.8.7,18.6-.7,17.4-.7,21.4.9,17.8,1.1,19.4,1.3,4.6,6.1,6,11.8.6,14.2-.1c7.1-1.7,7.9-3.2,5.6-3.8s-9.3,3.4-14.2,1.2-5.7-14-5.7-20-.2-9.6-.1-14.8-2.7-21.5-2.7-21.5c-1.4-9.5,1.8-14,1.8-14s1-21.7,1.6-26.1,3-3.5,7.1-4.1,3.6-2,5.4-4.5c-4.8,3.2-6.6,2.6-6.6,2.6l4.9-2.5Zm0,0,9.9-4.5,13.4-5.4a8.2,8.2,0,0,0-.6-1.4c-7.1,2.4-20.9,8.4-21.6,8.8L177,114c-1.6.7-12.2,4.5-12.2,4.5s-19.3,7.4-20.2,7.6-4.3.1-5.1.3-12,5.2-13.5,5.4-4.8-3-4.8-3l-1.2,1,1.1,1.6c3,3.5,5.2,2.3,5.2,2.3s9.5-4.3,12.5-5.2,7.3-1.2,8.9-1.7l18.5-7.3s-1.3,27.7-1.4,28.4-2.2,4.4-3.9,8.6.3,15.8.7,18.6-.7,17.4-.7,21.4.9,17.8,1.1,19.4,1.3,4.6,6.1,6,11.8.6,14.2-.1c7.1-1.7,7.9-3.2,5.6-3.8s-9.3,3.4-14.2,1.2-5.7-14-5.7-20-.2-9.6-.1-14.8-2.7-21.5-2.7-21.5c-1.4-9.5,1.8-14,1.8-14s1-21.7,1.6-26.1,3-3.5,7.1-4.1,3.6-2,5.4-4.5c-4.8,3.2-6.6,2.6-6.6,2.6l4.9-2.5Zm33.5,18.9c1.7-6.3,7.1-10.8,8.8-16.9.6-2,3.6-21.6,4.8-22.3s10.8.2,10.8.2c-4.3-3.5-10.7-3.3-10.7-3.3l-1.5-2.8-1.4.3c.1,5.2-1.4,12.5-2.3,18.6s-1.6,12.3-7.5,16.7c-8,5.2-8.7,14.7-8.7,14.7-.2,11.1-4.3,33.5-4.3,33.5s-8.8,41.4-6.8,46.2,9.6,6.6,14.3,7.5,14.2,0,16.4-.4a3.7,3.7,0,0,0,2.8-2.8c-.1.1-1.1,1-10.9.5-12.5-.7-11.9-14.1-12-17.1s5.5-30.9,5.5-30.9C216.3,166.7,217.5,133,218.1,130.8ZM243,64.1s-14.2-3.5-17-4-10.5-1.6-11.9-2.2-5.9-2.4-5.1-5.3,3.1-2.1,2.9-4.4-.4-2.6-3.1-3.4-8.1,9.3-3.9,12.7c2,2.2,30.7,7.5,30.7,7.5s.8.7-.5,4.7.2,4.1,0,5.3-1.7,1.8-1.5,3.6,4.7,2,4.9,3.2-2.3,1.6-2,1.9,1.1.6,3.2.2,2.4-3.3-1.2-5c0,0-4.7-2,0-2.8,2.4-.2,2.3-1.6,1.9-2s-2.8-.6-3.2-1-.8-1.7.8-3.8a21.2,21.2,0,0,0,.4-3.8l32,7.4,3.5.4.4-1.4Zm0,0s-14.2-3.5-17-4-10.5-1.6-11.9-2.2-5.9-2.4-5.1-5.3,3.1-2.1,2.9-4.4-.4-2.6-3.1-3.4-8.1,9.3-3.9,12.7c2,2.2,30.7,7.5,30.7,7.5s.8.7-.5,4.7.2,4.1,0,5.3-1.7,1.8-1.5,3.6,4.7,2,4.9,3.2-2.3,1.6-2,1.9,1.1.6,3.2.2,2.4-3.3-1.2-5c0,0-4.7-2,0-2.8,2.4-.2,2.3-1.6,1.9-2s-2.8-.6-3.2-1-.8-1.7.8-3.8a21.2,21.2,0,0,0,.4-3.8l32,7.4,3.5.4.4-1.4Zm-24.9,66.7c1.7-6.3,7.1-10.8,8.8-16.9.6-2,3.6-21.6,4.8-22.3s10.8.2,10.8.2c-4.3-3.5-10.7-3.3-10.7-3.3l-1.5-2.8-1.4.3c.1,5.2-1.4,12.5-2.3,18.6s-1.6,12.3-7.5,16.7c-8,5.2-8.7,14.7-8.7,14.7-.2,11.1-4.3,33.5-4.3,33.5s-8.8,41.4-6.8,46.2,9.6,6.6,14.3,7.5,14.2,0,16.4-.4a3.7,3.7,0,0,0,2.8-2.8c-.1.1-1.1,1-10.9.5-12.5-.7-11.9-14.1-12-17.1s5.5-30.9,5.5-30.9C216.3,166.7,217.5,133,218.1,130.8Zm-33.5-18.9,9.9-4.5,13.4-5.4a8.2,8.2,0,0,0-.6-1.4c-7.1,2.4-20.9,8.4-21.6,8.8L177,114c-1.6.7-12.2,4.5-12.2,4.5s-19.3,7.4-20.2,7.6-4.3.1-5.1.3-12,5.2-13.5,5.4-4.8-3-4.8-3l-1.2,1,1.1,1.6c3,3.5,5.2,2.3,5.2,2.3s9.5-4.3,12.5-5.2,7.3-1.2,8.9-1.7l18.5-7.3s-1.3,27.7-1.4,28.4-2.2,4.4-3.9,8.6.3,15.8.7,18.6-.7,17.4-.7,21.4.9,17.8,1.1,19.4,1.3,4.6,6.1,6,11.8.6,14.2-.1c7.1-1.7,7.9-3.2,5.6-3.8s-9.3,3.4-14.2,1.2-5.7-14-5.7-20-.2-9.6-.1-14.8-2.7-21.5-2.7-21.5c-1.4-9.5,1.8-14,1.8-14s1-21.7,1.6-26.1,3-3.5,7.1-4.1,3.6-2,5.4-4.5c-4.8,3.2-6.6,2.6-6.6,2.6l4.9-2.5Zm0,0,9.9-4.5,13.4-5.4a8.2,8.2,0,0,0-.6-1.4c-7.1,2.4-20.9,8.4-21.6,8.8L177,114c-1.6.7-12.2,4.5-12.2,4.5s-19.3,7.4-20.2,7.6-4.3.1-5.1.3-12,5.2-13.5,5.4-4.8-3-4.8-3l-1.2,1,1.1,1.6c3,3.5,5.2,2.3,5.2,2.3s9.5-4.3,12.5-5.2,7.3-1.2,8.9-1.7l18.5-7.3s-1.3,27.7-1.4,28.4-2.2,4.4-3.9,8.6.3,15.8.7,18.6-.7,17.4-.7,21.4.9,17.8,1.1,19.4,1.3,4.6,6.1,6,11.8.6,14.2-.1c7.1-1.7,7.9-3.2,5.6-3.8s-9.3,3.4-14.2,1.2-5.7-14-5.7-20-.2-9.6-.1-14.8-2.7-21.5-2.7-21.5c-1.4-9.5,1.8-14,1.8-14s1-21.7,1.6-26.1,3-3.5,7.1-4.1,3.6-2,5.4-4.5c-4.8,3.2-6.6,2.6-6.6,2.6l4.9-2.5Zm33.5,18.9c1.7-6.3,7.1-10.8,8.8-16.9.6-2,3.6-21.6,4.8-22.3s10.8.2,10.8.2c-4.3-3.5-10.7-3.3-10.7-3.3l-1.5-2.8-1.4.3c.1,5.2-1.4,12.5-2.3,18.6s-1.6,12.3-7.5,16.7c-8,5.2-8.7,14.7-8.7,14.7-.2,11.1-4.3,33.5-4.3,33.5s-8.8,41.4-6.8,46.2,9.6,6.6,14.3,7.5,14.2,0,16.4-.4a3.7,3.7,0,0,0,2.8-2.8c-.1.1-1.1,1-10.9.5-12.5-.7-11.9-14.1-12-17.1s5.5-30.9,5.5-30.9C216.3,166.7,217.5,133,218.1,130.8ZM243,64.1s-14.2-3.5-17-4-10.5-1.6-11.9-2.2-5.9-2.4-5.1-5.3,3.1-2.1,2.9-4.4-.4-2.6-3.1-3.4-8.1,9.3-3.9,12.7c2,2.2,30.7,7.5,30.7,7.5s.8.7-.5,4.7.2,4.1,0,5.3-1.7,1.8-1.5,3.6,4.7,2,4.9,3.2-2.3,1.6-2,1.9,1.1.6,3.2.2,2.4-3.3-1.2-5c0,0-4.7-2,0-2.8,2.4-.2,2.3-1.6,1.9-2s-2.8-.6-3.2-1-.8-1.7.8-3.8a21.2,21.2,0,0,0,.4-3.8l32,7.4,3.5.4.4-1.4Zm0,0s-14.2-3.5-17-4-10.5-1.6-11.9-2.2-5.9-2.4-5.1-5.3,3.1-2.1,2.9-4.4-.4-2.6-3.1-3.4-8.1,9.3-3.9,12.7c2,2.2,30.7,7.5,30.7,7.5s.8.7-.5,4.7.2,4.1,0,5.3-1.7,1.8-1.5,3.6,4.7,2,4.9,3.2-2.3,1.6-2,1.9,1.1.6,3.2.2,2.4-3.3-1.2-5c0,0-4.7-2,0-2.8,2.4-.2,2.3-1.6,1.9-2s-2.8-.6-3.2-1-.8-1.7.8-3.8a21.2,21.2,0,0,0,.4-3.8l32,7.4,3.5.4.4-1.4Zm-24.9,66.7c1.7-6.3,7.1-10.8,8.8-16.9.6-2,3.6-21.6,4.8-22.3s10.8.2,10.8.2c-4.3-3.5-10.7-3.3-10.7-3.3l-1.5-2.8-1.4.3c.1,5.2-1.4,12.5-2.3,18.6s-1.6,12.3-7.5,16.7c-8,5.2-8.7,14.7-8.7,14.7-.2,11.1-4.3,33.5-4.3,33.5s-8.8,41.4-6.8,46.2,9.6,6.6,14.3,7.5,14.2,0,16.4-.4a3.7,3.7,0,0,0,2.8-2.8c-.1.1-1.1,1-10.9.5-12.5-.7-11.9-14.1-12-17.1s5.5-30.9,5.5-30.9C216.3,166.7,217.5,133,218.1,130.8Zm-33.5-18.9,9.9-4.5,13.4-5.4a8.2,8.2,0,0,0-.6-1.4c-7.1,2.4-20.9,8.4-21.6,8.8L177,114c-1.6.7-12.2,4.5-12.2,4.5s-19.3,7.4-20.2,7.6-4.3.1-5.1.3-12,5.2-13.5,5.4-4.8-3-4.8-3l-1.2,1,1.1,1.6c3,3.5,5.2,2.3,5.2,2.3s9.5-4.3,12.5-5.2,7.3-1.2,8.9-1.7l18.5-7.3s-1.3,27.7-1.4,28.4-2.2,4.4-3.9,8.6.3,15.8.7,18.6-.7,17.4-.7,21.4.9,17.8,1.1,19.4,1.3,4.6,6.1,6,11.8.6,14.2-.1c7.1-1.7,7.9-3.2,5.6-3.8s-9.3,3.4-14.2,1.2-5.7-14-5.7-20-.2-9.6-.1-14.8-2.7-21.5-2.7-21.5c-1.4-9.5,1.8-14,1.8-14s1-21.7,1.6-26.1,3-3.5,7.1-4.1,3.6-2,5.4-4.5c-4.8,3.2-6.6,2.6-6.6,2.6l4.9-2.5Zm6,115.1s-1.7,1.4-6.8,2.2a77.6,77.6,0,0,1-12.9.7c-5.7-.1-10.4-2.9-10-2s1.2,2.1,6.1,3.2,13.6,1,15.4.8,9-1.3,10.7-4.6C192.2,226.4,190.6,227,190.6,227Z" fill="#B7C9CB"/><path d="M28.1,135.5v1.4c.1-.5.1-.9.2-1.4Z" fill="#B7C9CB"/><path d="M54.5,162c17.4-7.3,15-41-11.8-42.8H7v92H44.8A35.3,35.3,0,0,0,62,206.2l1.5-1a33.1,33.1,0,0,0,3-2.5l1.5-1.8.8-.9C77.3,187.1,75,164.3,54.5,162ZM28.1,136.9v-1.4h.2c8.4,0,17.7.1,17.7,9.5s-9.2,11.3-14.4,11.3a27.3,27.3,0,0,1-3.5-.2Zm10.1,57.4H28V172H38.3c3.1,0,13.8.7,13.8,11S39.5,194.3,38.2,194.3Z" fill="#231f20"/><path d="M28.1,135.5v1.4c.1-.5.1-.9.2-1.4Zm0,0v1.4c.1-.5.1-.9.2-1.4Zm0,0v1.4c.1-.5.1-.9.2-1.4Z" fill="#aebc43"/><path d="M28.1,135.5v1.4c.1-.5.1-.9.2-1.4Zm0,0v1.4c.1-.5.1-.9.2-1.4Zm0,0v1.4c.1-.5.1-.9.2-1.4Zm0,0v1.4c.1-.5.1-.9.2-1.4Zm-8.9-23.7h0Zm8.9,23.7v1.4c.1-.5.1-.9.2-1.4Zm0,0v1.4c.1-.5.1-.9.2-1.4Zm0,0v1.4c.1-.5.1-.9.2-1.4Zm0,0v1.4c.1-.5.1-.9.2-1.4Zm0,0v1.4c.1-.5.1-.9.2-1.4Z" fill="#B7C9CB"/><path d="M28.1,135.5v1.4c.1-.5.1-.9.2-1.4Z" fill="#aebc43"/><path d="M346.4,173.8a25.6,25.6,0,0,1,.5,2.7A25.6,25.6,0,0,0,346.4,173.8Z" fill="#231f20"/><path d="M346.4,173.8a25.6,25.6,0,0,1,.5,2.7A25.6,25.6,0,0,0,346.4,173.8Z" fill="#B7C9CB"/><path d="M66.5,202.7l1.5-1.8Z" fill="#aebc43"/><path d="M353,258.9c0-3.6,0-10.3-5.3-14.9s-9.8-4.9-19.5-4.9h-1.5a35.3,35.3,0,0,0-7.9.9h-2.6a151.9,151.9,0,0,0,9.8-19.8c13.1-3.1,23.2-11.9,26.9-24,0,0,7.6-26.8-8.8-43.1a36.7,36.7,0,0,0-6.5-5.3A159.3,159.3,0,0,0,26.7,111.9H0V217.9H30.6a159.5,159.5,0,0,0,233.8,75.7H320a45.1,45.1,0,0,0,9.7,1.1c4.5,0,19.3-.8,23.3-10.6,1.5-3.7,2.5-12.4-1.2-18.2C352.3,263.5,352.8,260.8,353,258.9ZM314.3,148.3h6.5l.8.2H323l.9.2.8.2,2.2.6.7.2,1.1.4,1.3.5a.1.1,0,0,0,.1.1l1.3.6,1.1.6.4.2,1,.6c.1.1.1.2.3.2a1,1,0,0,0,.5.4l.5.4h0l.9.7.5.4.5.4.9.8h0l.8.8.7.8a1.8,1.8,0,0,1,.5.7h.1l.2.4.5.6.3.4h0a1,1,0,0,1,.4.5l.5.7.3.6.4.6.2.5a5.9,5.9,0,0,1,.4.8c.2.2.2.4.3.6l.4.8.3.6a2.4,2.4,0,0,1,.2.8,1.1,1.1,0,0,1,.3.8,1.4,1.4,0,0,1,.2.6l.3.7v.5l.3.8h0c.1.3.1.6.2.8s.1.6.2.9.1.5.2.8.1.5.1.8a25.6,25.6,0,0,1,.5,2.7,3.1,3.1,0,0,0,.1,1v.9a2,2,0,0,1,.1.7c0,.4.1.8.1,1.2v.4c0,2.5-.1,4-.1,4H301.2s.1,13.7,13.4,14.5h.4c10.8,0,12.3-7.2,12.3-7.2h.8l1.4.2h.8l2.2.3h5.1l2.6.3,1.9.2,4.1.4a5.6,5.6,0,0,0-.4,1.2h-.1c-.1.4-.3.8-.4,1.2l-.5,1c0,.1-.1.2-.1.4a4.1,4.1,0,0,0-.5.9l-.6,1.1h-.1l-.6.9a8.6,8.6,0,0,1-.7,1l-1.4,1.8-.4.4h0l-.9.9-1,.9h-.2l-.6.6h-.1l-.4.3a.1.1,0,0,0-.1.1l-1,.7h-.2l-1.1.8-1.1.6h-.1l-.4.3-1.2.6h-.3l-.9.5h-.3l-.7.3-.5.2c-.1,0-.1,0-.1.1l-1.9.6-1.1.4H326a3.5,3.5,0,0,1-1.1.3l-1,.3h-.6l-.9.2-1.1.2h0l-1.4.2h-5.1A40.1,40.1,0,0,1,301,212c-10.8-4.1-18.2-12.9-19.6-25.1C280.9,182.8,279.2,148.4,314.3,148.3ZM115.8,129.7c.3-6.3,10.2-7.8,12.5-9.3s5.3-3.6,6.3-4,8.9-4.1,8.9-4.1l16.6-6.7,38.6-16.1c6.8-2.8,14.1.6,17.9,6.2s-7.1,9.9-7.1,9.9l-21.8,9.1c-2.7,1.1-2.3,3.2-2.3,3.2s2.4,16.4,2.7,26.2c3,8.5,5.5,6.7,6.7,18.4,1,7.6.7,21.8.7,30.5,0,3.1-.1,6.9-.3,10.5,1.1-6.9,2.5-16.4,4-26.3,3-19.5,6.1-44.6,8.8-50.2s10.4-11.5,11.1-12.5c2.7-3.6,3.9-23.4,5.7-30.5.9-3.5,1.7-4.1,4.2-6.2a79.5,79.5,0,0,0,.2-9.2c-14.2-2.8-24.4-4.2-27.7-7.7S197,48.8,201,44.5s8.2-3.5,10.3-3.5,25.3,6.6,45.9,11.1,27,5.5,25.2,18S266,78.4,266,78.4s-15.7-3.9-20.2-4.8c-1.4,7.4,0,4.8,1.6,9.1,2.1,5.8-5.6,27.2-1.8,36.1,7,8.7,8.2,13.3,6.1,26.1-.7,4.6-6.6,38.6-8.6,60.1s-5.2,22.4-16.2,23.8c-9.1,1.1-24.6-3.7-28.5-5.2-1.8-.7-2.9-2.7-3.7-4.6,0,4.2-7.7,6.2-7.7,6.2s-3.3,1.8-17.6,1.3-13.1-13.3-13.1-13.3-.6-19.7-1-30.8-.5-18.6-.2-24.8,4.4-8,4.5-9.5.9-21.7.9-21.7c-3.2,1.7-12.2,5-13,5.3s-9.9,1.9-13.5,3.6-4.2,2.7-8.5,2.6C117,137.7,115.7,131.4,115.8,129.7Zm122,105.2c0,2.5-9.4,4.4-21,4.4s-20.9-1.9-20.9-4.4,9.4-4.4,20.9-4.4S237.8,232.5,237.8,234.9ZM68.8,200l-.8.9-1.5,1.8a33.1,33.1,0,0,1-3,2.5l-1.5,1a35.3,35.3,0,0,1-17.2,4.7H7v-92H42.7C69.5,121,71.9,154.7,54.5,162,75,164.3,77.3,187.1,68.8,200Zm10.9-8.4a30,30,0,0,1-2-10.8,34.2,34.2,0,0,1,.9-7.9c3.2-14.8,15.8-25.8,35.4-25.8s36.3,11.6,36.3,33.3c0,18.5-15.3,33-35.2,32.6C98.4,214,84.6,204.7,79.7,191.6Zm92.1,95.2h-20l-4.9-20.5-4.3,20.6H122.9l-7.1-40.1h15.3l3.4,26.6,4.3-26.6h16.6l3.6,27.8,4.3-27.9h15.5ZM167,231.1c-4.9-1.1-6.1-3.2-6.1-3.2s4.3,1.9,10,2a77.6,77.6,0,0,0,12.9-.7c5.1-.8,6.8-2.2,6.8-2.2s1.6-.6,2.5.3c-1.7,3.3-8.9,4.5-10.7,4.6S171.9,232.2,167,231.1Zm52.8,44.6c0,8.1-7.6,11.7-14,11.7h-8c-6.4,0-14.9-3.2-14.9-11.7V257.8c0-6.4,5.8-11.7,15.3-11.5h6.7c6.4,0,14.4,2.9,14.9,11.5Zm42.8,11H248.2V272.1a3.3,3.3,0,0,0-3.3-3.3h-1.8v17.8H227.2V247.1H245c15,0,17.5,3.1,17.5,10s-1.6,8.1-7.9,8.8l3.6.9a5.8,5.8,0,0,1,4.4,5.7ZM256.8,212V111h20V212Zm36,74.7L288.3,275l-2.1-5.3v16.9H270.4V246.8h16V262l6.7-15.1h15.2l-4.1,8.2-3.2,6.3h0l-1.8,3.6,5.3,11.5,4.6,10.2Zm53.7-5.2c-1.7,4.1-9.2,6.2-16.8,6.2-5.1,0-10.3-1-13.7-2.9a10.6,10.6,0,0,1-2.3-1.7c-1.7-1.7-2.3-4.5-2.2-8.2a19.3,19.3,0,0,1,.1-2.4h14.6c0,8,.1,8.3,3.2,8.3s2.9-2.4,2.9-5.2-5.6-5-12.5-7.9-8.6-6.6-8.7-10.8v-.5a8.8,8.8,0,0,1,4-7.6c3.8-2.4,9.1-2.8,11.6-2.8H328c16.2,0,18,4.2,18,12.8H331.3c0-4.2.3-6.1-2.4-6.1s-3.5,1.4-2.8,5.6c2.9,3.3,14.2,5,19.3,10.6C348,271.9,347.6,278.8,346.5,281.5Z" fill="#B7C9CB"/><path d="M52.1,183.1c0,11-12.6,11.2-13.9,11.2H28V172H38.3C41.4,172.1,52.1,172.8,52.1,183.1Z" fill="#B7C9CB"/><path d="M46,145c0,9.9-9.2,11.3-14.4,11.3a27.3,27.3,0,0,1-3.5-.2V136.9c.1-.5.1-.9.2-1.4C36.7,135.5,46,135.6,46,145Z" fill="#B7C9CB"/><path d="M114,147.1c-19.6,0-32.2,11-35.4,25.8a34.2,34.2,0,0,0-.9,7.9,30,30,0,0,0,2,10.8c4.9,13.1,18.7,22.4,35.4,21.4,19.9.4,35.2-14.1,35.2-32.6C150.3,158.7,132.5,147.1,114,147.1Zm-.2,49.2a16,16,0,1,1,15.8-16A15.9,15.9,0,0,1,113.8,196.3Z" fill="#231f20"/><ellipse cx="113.8" cy="180.3" rx="15.8" ry="16" fill="#B7C9CB"/><rect x="256.8" y="111" width="20" height="101.02" fill="#231f20"/><path d="M347.2,180.7v-.4c0-.4-.1-.8-.1-1.2a2,2,0,0,0-.1-.7v-.9a3.1,3.1,0,0,1-.1-1,25.6,25.6,0,0,0-.5-2.7c0-.3-.1-.5-.1-.8s-.1-.5-.2-.8-.1-.6-.2-.9-.1-.5-.2-.8h0l-.3-.8v-.5l-.3-.7a1.4,1.4,0,0,0-.2-.6,1.1,1.1,0,0,0-.3-.8,2.4,2.4,0,0,0-.2-.8l-.3-.6-.4-.8c-.1-.2-.1-.4-.3-.6a5.9,5.9,0,0,0-.4-.8l-.2-.5-.4-.6-.3-.6-.5-.7a1,1,0,0,0-.4-.5h0l-.3-.4-.5-.6-.2-.4H340a1.8,1.8,0,0,0-.5-.7l-.7-.8-.8-.8h0l-.9-.8-.5-.4-.5-.4-.9-.7h0l-.5-.4a1,1,0,0,1-.5-.4c-.2,0-.2-.1-.3-.2l-1-.6-.4-.2-1.1-.6-1.3-.6a.1.1,0,0,1-.1-.1l-1.3-.5-1.1-.4-.7-.2-2.2-.6-.8-.2-.9-.2h-1.4l-.8-.2h-6.5c-35.1.1-33.4,34.5-32.9,38.6,1.4,12.2,8.8,21,19.6,25.1a40.1,40.1,0,0,0,13.8,2.4h5.1l1.4-.2h0l1.1-.2.9-.2h.6l1-.3a3.5,3.5,0,0,0,1.1-.3h.2l1.1-.4,1.9-.6c0-.1,0-.1.1-.1l.5-.2.7-.3h.3l.9-.5h.3l1.2-.6.4-.3h.1l1.1-.6,1.1-.8h.2l1-.7a.1.1,0,0,1,.1-.1l.4-.3h.1l.6-.6h.2l1-.9.9-.9h0l.4-.4,1.4-1.8a8.6,8.6,0,0,0,.7-1l.6-.9h.1l.6-1.1a4.1,4.1,0,0,1,.5-.9c0-.2.1-.3.1-.4l.5-1c.1-.4.3-.8.4-1.2h.1a5.6,5.6,0,0,1,.4-1.2l-4.1-.4-1.9-.2-2.6-.3h-5.1l-2.2-.3h-.8l-1.4-.2h-.8s-1.5,7.2-12.3,7.2h-.4c-13.3-.8-13.4-14.5-13.4-14.5h45.9S347.2,183.2,347.2,180.7ZM302,172.6s3-10.5,13.8-10.5S329,172.6,329,172.6Z" fill="#231f20"/><path d="M329,172.6H302s3-10.5,13.8-10.5S329,172.6,329,172.6Z" fill="#B7C9CB"/><path d="M237.8,234.9c0,2.5-9.4,4.4-21,4.4s-20.9-1.9-20.9-4.4,9.4-4.4,20.9-4.4S237.8,232.5,237.8,234.9Z" fill="#231f20"/><path d="M193.1,227.3c-1.7,3.3-8.9,4.5-10.7,4.6s-10.5.3-15.4-.8-6.1-3.2-6.1-3.2,4.3,1.9,10,2a77.6,77.6,0,0,0,12.9-.7c5.1-.8,6.8-2.2,6.8-2.2S192.2,226.4,193.1,227.3Z" fill="#231f20"/><path d="M154.9,159.9Z" fill="#231f20"/><path d="M155,158.9v0Z" fill="#231f20"/><path d="M155,159.1v0Z" fill="#231f20"/><path d="M155,159.6v0Z" fill="#231f20"/><path d="M155,158.6v0Z" fill="#231f20"/><path d="M155,158.3v0Z" fill="#231f20"/><path d="M155.1,157.6v0Z" fill="#231f20"/><path d="M155.1,157.6Z" fill="#231f20"/><path d="M155.1,158.1v0Z" fill="#231f20"/><path d="M155.1,158h0Z" fill="#231f20"/><path d="M154.9,160Z" fill="#231f20"/><path d="M257.2,52.1C236.6,47.6,213.3,41,211.3,41s-6.4-.8-10.3,3.5-2.3,14.1.5,16.4,13.5,4.9,27.7,7.7a79.5,79.5,0,0,1-.2,9.2c-2.5,2.1-3.3,2.7-4.2,6.2-1.8,7.1-3,26.9-5.7,30.5-.7,1-7.6,5.5-11.1,12.5s-5.8,30.7-8.8,50.2c-1.5,9.9-2.9,19.4-4,26.3.2-3.6.3-7.4.3-10.5,0-8.7.3-22.9-.7-30.5-1.2-11.7-3.7-9.9-6.7-18.4-.3-9.8-2.7-26.2-2.7-26.2s-.4-2.1,2.3-3.2l21.8-9.1s9.5-2.8,7.1-9.9-11.1-9-17.9-6.2l-38.6,16.1-16.6,6.7s-7.8,3.7-8.9,4.1-5,3.5-6.3,4-12.2,3-12.5,9.3c-.1,1.7,1.2,8,9.7,8.2,4.3.1,5.5-1.1,8.5-2.6s12.7-3.3,13.5-3.6,9.8-3.6,13-5.3c0,0-.8,20.2-.9,21.7s-4.1,3.9-4.5,9.5-.2,13.6.2,24.8,1,30.8,1,30.8-1.1,12.9,13.1,13.3,17.6-1.3,17.6-1.3,7.7-2,7.7-6.2c.8,1.9,1.9,3.9,3.7,4.6,3.9,1.5,19.4,6.3,28.5,5.2,11-1.4,14.2-2.5,16.2-23.8s7.9-55.5,8.6-60.1c2.1-12.8.9-17.4-6.1-26.1-3.8-8.9,3.9-30.3,1.8-36.1-1.6-4.3-3-1.7-1.6-9.1,4.5.9,20.2,4.8,20.2,4.8s14.6,4.3,16.4-8.3S277.1,56.5,257.2,52.1ZM192.4,215.3c-2.6,10.9-21.9,9.2-28.3,6.7s-3.9-18.7-5.1-28c-.2-1.4-.7-18.8-1-24.4a107.4,107.4,0,0,1,.1-11.4c.3-3.5,4-7.7,4.3-9.8s1-25.9,1-25.9l-8.5,3.1s-24.7,9.1-27.7,9.3a9.2,9.2,0,0,1-6.8-2.4,4,4,0,0,1-1.3-4.4c.1-1.5,13.8-7,18.4-9.7l17-7.7s42.2-17.4,47.8-19.4,14.5,5.7,11.2,8.6c-5.1,4.3-30.6,12.7-30.9,14.6-.6,4.8.8,17.4,2.9,32.4.7,4.6,5.4,5.2,5.7,15.8C191.4,171.5,193,201.2,192.4,215.3ZM271.6,76.5c-14.4-2.9-28.4-6.3-28.4-6.3l-.9,10a7.7,7.7,0,0,1,2.2,6.6s-6.7,29.1-.2,35.4,5.2,16.4,4.6,21.2-4.7,25.1-5.3,31.7-5.1,36.4-5.3,40.3-2.4,10.2-9,10.5a98.9,98.9,0,0,1-18.3-1.2c-4.6-.7-13-4-13.7-8.8S201,187,201,187s7.8-54.1,8-54.8a26.5,26.5,0,0,1,11.4-14.7c4.6-3,6-33.6,8.3-35.7a7.1,7.1,0,0,1,3.1-1.8l.4-13.9-24.4-5.2s-8.9-1.7-6.1-11.7c1.8-6.2,6.8-6.5,9.2-5.9s57.2,15.1,64.9,16.5C281.7,61.3,282.6,76.9,271.6,76.5Z" fill="#231f20"/><path d="M213.5,99.9c3.3-2.9-6.8-10.1-11.2-8.6s-47.8,19.4-47.8,19.4l-17,7.7c-4.6,2.7-18.3,8.2-18.4,9.7a4,4,0,0,0,1.3,4.4,9.2,9.2,0,0,0,6.8,2.4c3-.2,27.7-9.3,27.7-9.3l8.5-3.1s-.7,23.8-1,25.9-4,6.3-4.3,9.8a107.4,107.4,0,0,0-.1,11.4c.3,5.6.8,23,1,24.4,1.2,9.3-1.3,25.5,5.1,28s25.7,4.2,28.3-6.7c.6-14.1-1-43.8-1.2-52.6-.3-10.6-5-11.2-5.7-15.8-2.1-15-3.5-27.6-2.9-32.4C182.9,112.6,208.4,104.2,213.5,99.9Zm-32.4,14.3c-1.8,2.5-2.1,3.8-5.4,4.5s-6.5-.3-7.1,4.1-1.6,26.1-1.6,26.1-3.2,4.5-1.8,14c0,0,2.8,16.3,2.7,21.5s.2,8.8.1,14.8-.4,16.7,5.7,20,10.7-1.2,14.2-1.2,1.5,2.1-5.6,3.8c-2.4.7-9.4,1.4-14.2.1s-5.8-4.4-6.1-6-1-15.5-1.1-19.4,1-18.6.7-21.4-2.3-14.3-.7-18.6,3.9-7.9,3.9-8.6,1.4-28.4,1.4-28.4l-18.5,7.3c-1.6.5-6,.8-8.9,1.7s-12.5,5.2-12.5,5.2-2.2,1.2-5.2-2.3l-1.1-1.6,1.2-1s3.3,3.2,4.8,3,12.7-5.2,13.5-5.4,4.3-.1,5.1-.3,20.2-7.6,20.2-7.6,10.6-3.8,12.2-4.5l8.7-4.6c.7-.4,14.5-6.4,21.6-8.8a8.2,8.2,0,0,1,.6,1.4l-13.4,5.4-9.9,4.5-5.2,2.4-4.9,2.5S176.3,117.4,181.1,114.2Z" fill="#B7C9CB"/><path d="M154.9,159.9h0Z" fill="#231f20"/><path d="M154.9,160Z" fill="#231f20"/><path d="M179.4,114.3l-4.9,2.5s1.8.6,6.6-2.6c-1.8,2.5-2.1,3.8-5.4,4.5s-6.5-.3-7.1,4.1-1.6,26.1-1.6,26.1-3.2,4.5-1.8,14c0,0,2.8,16.3,2.7,21.5s.2,8.8.1,14.8-.4,16.7,5.7,20,10.7-1.2,14.2-1.2,1.5,2.1-5.6,3.8c-2.4.7-9.4,1.4-14.2.1s-5.8-4.4-6.1-6-1-15.5-1.1-19.4,1-18.6.7-21.4-2.3-14.3-.7-18.6,3.9-7.9,3.9-8.6,1.4-28.4,1.4-28.4l-18.5,7.3c-1.6.5-6,.8-8.9,1.7s-12.5,5.2-12.5,5.2-2.2,1.2-5.2-2.3l-1.1-1.6,1.2-1s3.3,3.2,4.8,3,12.7-5.2,13.5-5.4,4.3-.1,5.1-.3,20.2-7.6,20.2-7.6,10.6-3.8,12.2-4.5l8.7-4.6c.7-.4,14.5-6.4,21.6-8.8a8.2,8.2,0,0,1,.6,1.4l-13.4,5.4-9.9,4.5Z" fill="#231f20"/><path d="M275.8,59.8c-7.7-1.4-62.1-15.8-64.9-16.5s-7.4-.3-9.2,5.9c-2.8,10,6.1,11.7,6.1,11.7l24.4,5.2L231.8,80a7.1,7.1,0,0,0-3.1,1.8c-2.3,2.1-3.7,32.7-8.3,35.7A26.5,26.5,0,0,0,209,132.2c-.2.7-8,54.8-8,54.8s-4.3,24-3.7,28.9,9.1,8.1,13.7,8.8a98.9,98.9,0,0,0,18.3,1.2c6.6-.3,8.7-6.6,9-10.5s4.6-33.7,5.3-40.3,4.6-27,5.3-31.7,1.9-14.9-4.6-21.2.2-35.4.2-35.4a7.7,7.7,0,0,0-2.2-6.6l.9-10s14,3.4,28.4,6.3C282.6,76.9,281.7,61.3,275.8,59.8Zm-33.3,32s-8.6-1.6-10.8-.2-4.2,20.3-4.8,22.3c-1.7,6.1-7.1,10.6-8.8,16.9-.6,2.2-1.8,35.9-2.7,41.7,0,0-5.6,27.9-5.5,30.9s-.5,16.4,12,17.1c9.8.5,10.8-.4,10.9-.5a3.7,3.7,0,0,1-2.8,2.8c-2.2.4-11.7,1.3-16.4.4s-12.3-2.7-14.3-7.5,6.8-46.2,6.8-46.2,4.1-22.4,4.3-33.5c0,0,.7-9.5,8.7-14.7,5.9-4.4,6.6-10.5,7.5-16.7S229,91.2,228.9,86l1.4-.3,1.5,2.8S238.2,88.3,242.5,91.8Zm31.4-18.5-3.5-.4-32-7.4a21.2,21.2,0,0,1-.4,3.8c-1.6,2.1-1.1,3.3-.8,3.8s2.1.3,3.2,1,.5,1.8-1.9,2c-4.7.8,0,2.8,0,2.8,3.6,1.7,3.3,4.5,1.2,5s-2.9.1-3.2-.2,2.3-.6,2-1.9-4.8-1.9-4.9-3.2,1.3-2.4,1.5-3.6-1.3-1.3,0-5.3.5-4.7.5-4.7-28.7-5.3-30.7-7.5c-4.2-3.4.9-12.7,3.9-12.7s3,1.7,3.1,3.4-2.2,2.4-2.9,4.4,3.7,4.7,5.1,5.3,9,1.6,11.9,2.2,17,4,17,4l31.3,7.8Z" fill="#B7C9CB"/><path d="M274.3,71.9l-.4,1.4-3.5-.4-32-7.4a21.2,21.2,0,0,1-.4,3.8c-1.6,2.1-1.1,3.3-.8,3.8s2.1.3,3.2,1,.5,1.8-1.9,2c-4.7.8,0,2.8,0,2.8,3.6,1.7,3.3,4.5,1.2,5s-2.9.1-3.2-.2,2.3-.6,2-1.9-4.8-1.9-4.9-3.2,1.3-2.4,1.5-3.6-1.3-1.3,0-5.3.5-4.7.5-4.7-28.7-5.3-30.7-7.5c-4.2-3.4.9-12.7,3.9-12.7s3,1.7,3.1,3.4-2.2,2.4-2.9,4.4,3.7,4.7,5.1,5.3,9,1.6,11.9,2.2,17,4,17,4Z" fill="#231f20"/><path d="M215.4,172.5s-5.6,27.9-5.5,30.9-.5,16.4,12,17.1c9.8.5,10.8-.4,10.9-.5a3.7,3.7,0,0,1-2.8,2.8c-2.2.4-11.7,1.3-16.4.4s-12.3-2.7-14.3-7.5,6.8-46.2,6.8-46.2,4.1-22.4,4.3-33.5c0,0,.7-9.5,8.7-14.7,5.9-4.4,6.6-10.5,7.5-16.7S229,91.2,228.9,86l1.4-.3,1.5,2.8s6.4-.2,10.7,3.3c0,0-8.6-1.6-10.8-.2s-4.2,20.3-4.8,22.3c-1.7,6.1-7.1,10.6-8.8,16.9C217.5,133,216.3,166.7,215.4,172.5Z" fill="#231f20"/><polygon points="178.8 246.8 171.8 286.8 151.8 286.8 146.9 266.3 142.6 286.9 122.9 286.9 115.8 246.8 131.1 246.8 134.5 273.4 138.8 246.8 155.4 246.9 159 274.7 163.3 246.8 178.8 246.8" fill="#231f20"/><path d="M204.9,246.3h-6.7c-9.5-.2-15.3,5.1-15.3,11.5v17.9c0,8.5,8.5,11.7,14.9,11.7h8c6.4,0,14-3.6,14-11.7V257.8C219.3,249.2,211.3,246.3,204.9,246.3Zm-1,32.2a2.5,2.5,0,0,1-5,0V255.2a2.5,2.5,0,0,1,5,0Z" fill="#231f20"/><path d="M203.9,255.2v23.3a2.5,2.5,0,0,1-5,0V255.2a2.5,2.5,0,0,1,5,0Z" fill="#B7C9CB"/><path d="M258.2,266.8l-3.6-.9c6.3-.7,7.9-1.3,7.9-8.8s-2.5-10-17.5-10H227.3v39.5h15.9V268.8h1.8a3.3,3.3,0,0,1,3.3,3.3v14.6h14.4V272.5A5.8,5.8,0,0,0,258.2,266.8Zm-10.4-5.9c0,2-4.6,1.6-4.6,1.6v-8.6s3.7-.3,4.6,1.1Z" fill="#231f20"/><path d="M247.8,260.9c0,2-4.6,1.6-4.6,1.6v-8.6s3.7-.3,4.6,1.1Z" fill="#B7C9CB"/><path d="M309.1,286.7H292.8L288.3,275l-2.1-5.3v16.9H270.4V246.8h16V262l6.7-15.1h15.2l-4.1,8.2-3.2,6.3h0l-1.8,3.6,5.3,11.5Z" fill="#231f20"/><path d="M346.5,281.5c-1.7,4.1-9.2,6.2-16.8,6.2-5.1,0-10.3-1-13.7-2.9a10.6,10.6,0,0,1-2.3-1.7c-1.7-1.7-2.3-4.5-2.2-8.2a19.3,19.3,0,0,1,.1-2.4h14.6c0,8,.1,8.3,3.2,8.3s2.9-2.4,2.9-5.2-5.6-5-12.5-7.9-8.6-6.6-8.7-10.8v-.5a8.8,8.8,0,0,1,4-7.6c3.8-2.4,9.1-2.8,11.6-2.8H328c16.2,0,18,4.2,18,12.8H331.3c0-4.2.3-6.1-2.4-6.1s-3.5,1.4-2.8,5.6c2.9,3.3,14.2,5,19.3,10.6C348,271.9,347.6,278.8,346.5,281.5Z" fill="#231f20"/></svg>
