<svg id="Layer_1" data-name="Layer 1" xmlns="http://www.w3.org/2000/svg" width="1.4in" height="1.4in" viewBox="0 0 100 100"><title>map-marker</title><path d="M67.7,14.8C43.9,12.2,17,7.7,14.7,7.9s-7.3,0-11.2,5.3S2.8,29.3,6.2,31.5,22,35.4,38.3,36.8c.7,5.9,1.1,30.7,1.3,39.4a9.6,9.6,0,0,0,1.5,4.6l7.6,11.3,7-10.2a8.9,8.9,0,0,0,1.5-5c0-7.9-.2-29.5.3-36.6,5.2.5,23.3,2.8,23.3,2.8s16.9,3.1,17.4-11.3S90.6,17.2,67.7,14.8ZM86.8,40.3c-16.4-1.4-32.6-3.5-32.6-3.5l.2,25.6c0,.3.6,17.7-5.4,17.7-8,0-6.3-11.6-6.6-16.4L41.3,33.5,13.2,30.7S3,30,5,18.4c1.2-7.2,6.7-8.2,9.6-7.8S80.7,20.4,89.4,21C96.3,22.1,99.3,39.4,86.8,40.3Z" fill="#231f20"/><path d="M89.1,36.5h-4L48.2,32.1a20.2,20.2,0,0,1,0,4.3c-1.5,2.5-.8,3.9-.4,4.3s2.4.2,3.8.8.7,2-1.9,2.5c-5.3,1.5.3,3.1.3,3.1,4.2,1.5,4.3,4.7,1.9,5.5s-3.2.5-3.6.2,2.5-1,2.1-2.5-5.7-1.5-6-2.8,1.2-2.9,1.3-4.3-1.7-1.3-.7-6-.1-5.3-.1-5.3S12.1,29.5,9.5,27.3C4.4,24,9,12.9,12.3,12.5s3.7,1.6,4,3.5-2.2,2.9-2.7,5.3,4.7,4.8,6.3,5.3,10.4.7,13.7,1S53.3,30,53.3,30l36,4.8Z" fill="#fff"/><path d="M89.3,34.8l-.2,1.7h-4L48.2,32.1a20.2,20.2,0,0,1,0,4.3c-1.5,2.5-.8,3.9-.4,4.3s2.4.2,3.8.8.7,2-1.9,2.5c-5.3,1.5.3,3.1.3,3.1,4.2,1.5,4.3,4.7,1.9,5.5s-3.2.5-3.6.2,2.5-1,2.1-2.5-5.7-1.5-6-2.8,1.2-2.9,1.3-4.3-1.7-1.3-.7-6-.1-5.3-.1-5.3S12.1,29.5,9.5,27.3s-2.1-9.5.4-12.9a3.8,3.8,0,0,1,4.7-1.2A3.2,3.2,0,0,1,16.3,16c.5,2.5-2.2,2.9-2.7,5.3s4.7,4.8,6.3,5.3,10.4.7,13.7,1S53.3,30,53.3,30Z" fill="#231f20"/></svg>